<svg xmlns="http://www.w3.org/2000/svg" width="146.604" height="52.686" viewBox="0 0 146.604 52.686">
  <g id="Grupo_292" data-name="Grupo 292" transform="translate(-176.275 -164.19)">
    <g id="Grupo_249" data-name="Grupo 249" transform="translate(232.467 190.422)">
      <path id="Trazado_362" data-name="Trazado 362" d="M1196.333,644.022a.289.289,0,0,0-.326-.322h-.629v-.584h.732c.6,0,.852.246.852.846v5.918a3.053,3.053,0,1,0,6.107-.028v-5.889c0-.6.246-.846.843-.846h.74v.584h-.628a.289.289,0,0,0-.326.322v5.906a3.683,3.683,0,0,1-7.365,0Z" transform="translate(-1195.378 -642.94)" fill="#fff"/>
      <path id="Trazado_363" data-name="Trazado 363" d="M1381.3,652.783h.63a.289.289,0,0,0,.326-.323v-9.344h.582l5.844,8.041c.335.465.836,1.288.836,1.288h.032s-.071-.775-.071-1.288v-7.194c0-.6.246-.846.842-.846h.732v.584h-.627a.287.287,0,0,0-.319.322v9.345h-.588l-5.847-8.04c-.333-.47-.833-1.288-.833-1.288h-.026s.073.776.073,1.288v7.19c0,.6-.247.85-.852.85h-.733Z" transform="translate(-1371.051 -642.94)" fill="#fff"/>
      <path id="Trazado_364" data-name="Trazado 364" d="M1580.816,652.783h.939V643.7h-.939v-.584h2.506v.584h-.939v9.083h.939v.584h-2.506Z" transform="translate(-1559.563 -642.94)" fill="#fff"/>
      <path id="Trazado_365" data-name="Trazado 365" d="M1640.92,644.022c-.1-.278-.27-.322-.556-.322h-.087v-.584h.1c.73,0,.937.13,1.2.846l2.769,7.441c.175.484.4,1.234.4,1.234h.033s.213-.749.389-1.234l2.783-7.441c.278-.731.47-.846,1.2-.846h.1v.584h-.089c-.278,0-.453.043-.557.322l-3.5,9.345h-.693Z" transform="translate(-1615.746 -642.94)" fill="#fff"/>
      <path id="Trazado_366" data-name="Trazado 366" d="M1816.764,643.7h-.953v-.584h5.718c.6,0,.852.246.852.846v.776h-.62v-.716a.284.284,0,0,0-.319-.322h-4.048v4.2h4.088v.585h-4.088v3.972a.289.289,0,0,0,.326.323h4.16a.292.292,0,0,0,.325-.323v-.719h.612v.776c0,.6-.246.85-.849.85h-4.352c-.6,0-.852-.25-.852-.85Z" transform="translate(-1781.601 -642.94)" fill="#fff"/>
      <path id="Trazado_367" data-name="Trazado 367" d="M1960,643.7h-.955v-.584h4.248a2.7,2.7,0,0,1,2.823,2.839,2.637,2.637,0,0,1-2.108,2.756v.027a.936.936,0,0,1,.294.351l1.671,3.356c.143.307.349.339.747.339h.206v.584h-.206c-.867,0-1.066-.086-1.408-.775l-1.536-3.094c-.309-.6-.5-.672-1.065-.672h-2.083v4.541H1960Zm3.26,4.541a2.1,2.1,0,0,0,2.2-2.287,2.072,2.072,0,0,0-2.2-2.255h-2.633v4.541Z" transform="translate(-1916.941 -642.94)" fill="#fff"/>
      <path id="Trazado_368" data-name="Trazado 368" d="M2112.8,648.659a3.823,3.823,0,0,0,2.736,1.256,2.139,2.139,0,0,0,2.281-2.092c0-2.871-5.167-2.2-5.167-5.393,0-1.316,1.145-2.5,3.006-2.5.89,0,2.656.366,2.656,1.639v.644h-.636v-.5c0-.672-.939-1.173-2-1.173-1.525,0-2.354.91-2.354,1.878,0,2.664,5.164,1.976,5.164,5.372a2.766,2.766,0,0,1-2.967,2.74,4.191,4.191,0,0,1-3.135-1.392Z" transform="translate(-2061.821 -639.929)" fill="#fff"/>
      <path id="Trazado_369" data-name="Trazado 369" d="M2246.54,652.783h.932V643.7h-.932v-.584h2.5v.584h-.939v9.083h.939v.584h-2.5Z" transform="translate(-2188.58 -642.94)" fill="#fff"/>
      <path id="Trazado_370" data-name="Trazado 370" d="M2315.417,643.7h-.946v-.584h4.1a5.126,5.126,0,0,1,0,10.251h-2.3c-.6,0-.852-.25-.852-.85Zm.955,9.083h2.1a4.541,4.541,0,1,0,0-9.083h-2.417v8.76A.283.283,0,0,0,2316.372,652.783Z" transform="translate(-2252.766 -642.94)" fill="#fff"/>
      <path id="Trazado_371" data-name="Trazado 371" d="M2489.76,652.783h.157c.279,0,.461-.048.558-.323l3.5-9.344h.692l3.5,9.344c.1.275.277.323.557.323h.16v.584h-.176c-.733,0-.93-.131-1.2-.85l-1.009-2.692h-4.352l-1.009,2.692c-.263.72-.47.85-1.2.85h-.174Zm6.536-3.547-1.574-4.16c-.157-.438-.4-1.229-.4-1.229h-.024s-.224.791-.383,1.229l-1.551,4.16Z" transform="translate(-2418.389 -642.94)" fill="#fff"/>
      <path id="Trazado_372" data-name="Trazado 372" d="M2668.97,643.7h-.948v-.584h4.1a5.126,5.126,0,0,1,0,10.251h-2.3c-.6,0-.85-.25-.85-.85Zm.953,9.083h2.094a4.541,4.541,0,1,0,0-9.083h-2.41v8.76A.283.283,0,0,0,2669.923,652.783Z" transform="translate(-2586.822 -642.94)" fill="#fff"/>
    </g>
    <g id="Grupo_269" data-name="Grupo 269" transform="translate(232.155 178.375)">
      <g id="Grupo_264" data-name="Grupo 264" transform="translate(0 0)">
        <g id="Grupo_251" data-name="Grupo 251" transform="translate(3.089)">
          <g id="Grupo_250" data-name="Grupo 250">
            <path id="Trazado_373" data-name="Trazado 373" d="M1248.831,422.988a1.542,1.542,0,1,1-1.543-1.542,1.543,1.543,0,0,1,1.543,1.542" transform="translate(-1245.746 -421.446)" fill="#fff"/>
          </g>
        </g>
        <g id="Grupo_253" data-name="Grupo 253" transform="translate(3.089 3.569)">
          <g id="Grupo_252" data-name="Grupo 252">
            <path id="Trazado_374" data-name="Trazado 374" d="M1248.831,487.721a1.542,1.542,0,1,1-1.543-1.542,1.543,1.543,0,0,1,1.543,1.542" transform="translate(-1245.746 -486.179)" fill="#fff"/>
          </g>
        </g>
        <g id="Grupo_255" data-name="Grupo 255" transform="translate(3.089 7.139)">
          <g id="Grupo_254" data-name="Grupo 254">
            <path id="Trazado_375" data-name="Trazado 375" d="M1248.831,552.455a1.542,1.542,0,1,1-1.543-1.543,1.542,1.542,0,0,1,1.543,1.543" transform="translate(-1245.746 -550.912)" fill="#fff"/>
          </g>
        </g>
        <g id="Grupo_257" data-name="Grupo 257" transform="translate(0 1.788)">
          <g id="Grupo_256" data-name="Grupo 256">
            <path id="Trazado_376" data-name="Trazado 376" d="M1192.03,454.077a1.543,1.543,0,1,1-2.108.564,1.543,1.543,0,0,1,2.108-.564" transform="translate(-1189.716 -453.87)" fill="#fff"/>
          </g>
        </g>
        <g id="Grupo_259" data-name="Grupo 259" transform="translate(6.183 5.357)">
          <g id="Grupo_258" data-name="Grupo 258">
            <path id="Trazado_377" data-name="Trazado 377" d="M1304.157,518.815a1.543,1.543,0,1,1-2.108.564,1.543,1.543,0,0,1,2.108-.564" transform="translate(-1301.842 -518.609)" fill="#fff"/>
          </g>
        </g>
        <g id="Grupo_261" data-name="Grupo 261" transform="translate(0.004 5.358)">
          <g id="Grupo_260" data-name="Grupo 260">
            <path id="Trazado_378" data-name="Trazado 378" d="M1190.562,518.821a1.543,1.543,0,1,1-.564,2.107,1.543,1.543,0,0,1,.564-2.107" transform="translate(-1189.791 -518.614)" fill="#fff"/>
          </g>
        </g>
        <g id="Grupo_263" data-name="Grupo 263" transform="translate(6.187 1.788)">
          <g id="Grupo_262" data-name="Grupo 262">
            <path id="Trazado_379" data-name="Trazado 379" d="M1302.69,454.078a1.543,1.543,0,1,1-.565,2.107,1.542,1.542,0,0,1,.565-2.107" transform="translate(-1301.919 -453.871)" fill="#fff"/>
          </g>
        </g>
      </g>
      <g id="Grupo_268" data-name="Grupo 268" transform="translate(10.472 0)">
        <g id="Grupo_265" data-name="Grupo 265">
          <path id="Trazado_380" data-name="Trazado 380" d="M1380.62,428.967a3.96,3.96,0,0,0,2.465,1.045c.752,0,1.435-.39,1.435-1.2,0-1.769-4.666-1.462-4.666-4.5a3.04,3.04,0,0,1,3.315-2.87,4.2,4.2,0,0,1,2.953,1.058l-.78,1.463a3.611,3.611,0,0,0-2.187-.863c-.836,0-1.49.488-1.49,1.184,0,1.756,4.652,1.323,4.652,4.485a2.955,2.955,0,0,1-3.259,2.9,4.787,4.787,0,0,1-3.413-1.351Z" transform="translate(-1379.645 -421.446)" fill="#fff"/>
        </g>
        <g id="Grupo_266" data-name="Grupo 266" transform="translate(7.269)">
          <path id="Trazado_381" data-name="Trazado 381" d="M1516.6,421.446a5,5,0,0,1,5.112,5.042,5.112,5.112,0,1,1-10.223,0A5,5,0,0,1,1516.6,421.446Zm0,8.58a3.351,3.351,0,0,0,3.259-3.538,3.262,3.262,0,1,0-6.519,0A3.352,3.352,0,0,0,1516.6,430.026Z" transform="translate(-1511.484 -421.446)" fill="#fff"/>
        </g>
        <g id="Grupo_267" data-name="Grupo 267" transform="translate(18.106)">
          <path id="Trazado_382" data-name="Trazado 382" d="M1713.1,421.446a5.117,5.117,0,0,1,3.65,1.351l-.864,1.337a4.358,4.358,0,0,0-2.7-1.045,3.224,3.224,0,0,0-3.316,3.4,3.343,3.343,0,0,0,3.329,3.538,4.26,4.26,0,0,0,2.869-1.254l.948,1.3a5.322,5.322,0,0,1-3.887,1.6,5.112,5.112,0,0,1-.028-10.224Z" transform="translate(-1708.013 -421.446)" fill="#fff"/>
        </g>
      </g>
    </g>
    <g id="Grupo_270" data-name="Grupo 270" transform="translate(190.538 207.717)">
      <path id="Trazado_383" data-name="Trazado 383" d="M436.158,955.3a.094.094,0,0,0-.048-.142l-.186-.094.187-.372.436.219a.265.265,0,0,1,.138.415l-1.157,2.308a.1.1,0,0,0,.047.143l.842.423a.1.1,0,0,0,.143-.048l.1-.194.393.2-.193.384a.265.265,0,0,1-.415.138l-1.306-.654a.266.266,0,0,1-.138-.415Z" transform="translate(-434.951 -954.635)" fill="#fff"/>
      <path id="Trazado_384" data-name="Trazado 384" d="M491.8,974.6l.313.114.888-2.423-.314-.115.143-.391,1.058.387-.143.39-.314-.115-.887,2.424.313.115-.143.39-1.057-.387Zm2-3.364.444.162-.642.419-.345-.126Z" transform="translate(-488.527 -970.26)" fill="#fff"/>
      <path id="Trazado_385" data-name="Trazado 385" d="M546.056,995.849l-.308-.067.089-.407,1.351.294a1.707,1.707,0,1,1-.725,3.336l-.742-.162a.265.265,0,0,1-.237-.368Zm.028,2.648.435.094a1.291,1.291,0,0,0,.548-2.522l-.539-.117L546,998.371A.1.1,0,0,0,546.083,998.5Z" transform="translate(-539.377 -993.072)" fill="#fff"/>
      <path id="Trazado_386" data-name="Trazado 386" d="M626.705,1009.646l-.314-.008.011-.416,2.006.053c.218.006.307.1.3.318l-.011.43-.44-.011.005-.217a.1.1,0,0,0-.1-.109l-.972-.025-.028,1.068,1.194.032-.011.415-1.194-.03-.026.991a.1.1,0,0,0,.1.109l1,.026a.1.1,0,0,0,.109-.1l.005-.218.444.012-.011.43c-.005.217-.1.307-.317.3l-1.517-.04c-.217-.005-.307-.1-.3-.317Z" transform="translate(-615.835 -1006.155)" fill="#fff"/>
      <path id="Trazado_387" data-name="Trazado 387" d="M689.7,1004.787l-.309.055-.073-.409,1.465-.26a.949.949,0,0,1,1.179.807.876.876,0,0,1-.446,1l0,.01a.367.367,0,0,1,.169.126l.548.733c.065.091.143.087.257.067l.062-.011.072.409-.233.042c-.262.047-.363.03-.511-.169l-.617-.823c-.114-.142-.179-.154-.366-.121l-.438.078.238,1.337-.476.084Zm1.308,1.01a.556.556,0,0,0,.467-.711.542.542,0,0,0-.672-.494l-.628.112.214,1.2Z" transform="translate(-675.293 -1001.364)" fill="#fff"/>
      <path id="Trazado_388" data-name="Trazado 388" d="M755.165,982.013l-.291.117-.156-.385,1.86-.753a.266.266,0,0,1,.4.171l.161.4-.408.165-.082-.2a.094.094,0,0,0-.138-.059l-.9.364.4.991,1.107-.448.156.386-1.107.448.372.919a.1.1,0,0,0,.138.059l.924-.374a.1.1,0,0,0,.058-.139l-.081-.2.412-.167.161.4a.265.265,0,0,1-.171.4l-1.407.569a.265.265,0,0,1-.4-.171Z" transform="translate(-737.086 -979.447)" fill="#fff"/>
      <path id="Trazado_389" data-name="Trazado 389" d="M820.319,956.551a1.244,1.244,0,0,0,.942-.115.532.532,0,0,0,.219-.743c-.386-.6-1.715.38-2.288-.516a.986.986,0,0,1,.428-1.359c.306-.2.907-.386,1.157.005l.152.236-.375.24-.086-.134c-.1-.151-.382-.123-.61.023-.31.2-.4.494-.258.71.373.583,1.674-.434,2.279.51a.993.993,0,0,1-.388,1.4,1.524,1.524,0,0,1-1.227.182Z" transform="translate(-797.88 -953.595)" fill="#fff"/>
    </g>
    <g id="Grupo_291" data-name="Grupo 291" transform="translate(176.275 164.19)">
      <g id="Grupo_290" data-name="Grupo 290">
        <g id="Grupo_285" data-name="Grupo 285" transform="translate(17.481 23.418)">
          <g id="Grupo_271" data-name="Grupo 271" transform="translate(0 1.625)">
            <path id="Trazado_390" data-name="Trazado 390" d="M493.31,618.366" transform="translate(-493.31 -618.366)" fill="#fff"/>
          </g>
          <g id="Grupo_284" data-name="Grupo 284" transform="translate(0.288)">
            <g id="Grupo_272" data-name="Grupo 272" transform="translate(3.36 0.99)">
              <path id="Trazado_391" data-name="Trazado 391" d="M560.16,608.835a.649.649,0,0,1-.43-.155.664.664,0,0,1-.247-.458.672.672,0,0,1,.15-.5.291.291,0,0,1,.415-.04.3.3,0,0,1,.047.414.083.083,0,0,0-.024.067.08.08,0,0,0,.031.06.115.115,0,0,0,.064.02.1.1,0,0,0,.056-.032.242.242,0,0,0,.032-.035l1.408-1.241a.3.3,0,0,1,.421.024.288.288,0,0,1-.031.417l-1.385,1.229a.7.7,0,0,1-.446.226Z" transform="translate(-559.48 -606.865)" fill="#fff"/>
            </g>
            <g id="Grupo_273" data-name="Grupo 273" transform="translate(0.392)">
              <path id="Trazado_392" data-name="Trazado 392" d="M505.944,590.614a.314.314,0,0,1-.207-.088.3.3,0,0,1,0-.418l.9-.9a1.11,1.11,0,0,1,1.431-.087h.9a.3.3,0,0,1,.293.3.3.3,0,0,1-.293.294h-1.011a.289.289,0,0,1-.207-.088.5.5,0,0,0-.692,0l-.9.9A.3.3,0,0,1,505.944,590.614Z" transform="translate(-505.653 -588.901)" fill="#fff"/>
            </g>
            <g id="Grupo_274" data-name="Grupo 274" transform="translate(0 0.385)">
              <path id="Trazado_393" data-name="Trazado 393" d="M499.064,598.476a.307.307,0,0,1-.206-.087,1.08,1.08,0,0,1,0-1.528l.9-.9a.294.294,0,0,1,.413.417l-.9.9a.486.486,0,0,0,0,.688.293.293,0,0,1,0,.422A.288.288,0,0,1,499.064,598.476Z" transform="translate(-498.541 -595.876)" fill="#fff"/>
            </g>
            <g id="Grupo_277" data-name="Grupo 277" transform="translate(5.825 0.385)">
              <g id="Grupo_275" data-name="Grupo 275" transform="translate(1.031 1.03)">
                <path id="Trazado_394" data-name="Trazado 394" d="M622.874,614.55" transform="translate(-622.874 -614.55)" fill="#fff"/>
              </g>
              <g id="Grupo_276" data-name="Grupo 276">
                <path id="Trazado_395" data-name="Trazado 395" d="M605.367,598.476a.309.309,0,0,1-.207-.087.3.3,0,0,1,0-.422.459.459,0,0,0,.143-.341.47.47,0,0,0-.143-.347l-.9-.9a.3.3,0,0,1,0-.417.3.3,0,0,1,.422,0l.892.9a1.06,1.06,0,0,1,.317.764,1.074,1.074,0,0,1-.317.764A.3.3,0,0,1,605.367,598.476Z" transform="translate(-604.179 -595.876)" fill="#fff"/>
              </g>
            </g>
            <g id="Grupo_278" data-name="Grupo 278" transform="translate(4.544 0.001)">
              <path id="Trazado_396" data-name="Trazado 396" d="M583.242,590.629a.314.314,0,0,1-.207-.088l-.891-.9a.514.514,0,0,0-.7,0,.289.289,0,0,1-.413,0,.3.3,0,0,1,0-.418,1.1,1.1,0,0,1,1.526,0l.9.9a.288.288,0,0,1,0,.418A.3.3,0,0,1,583.242,590.629Z" transform="translate(-580.947 -588.917)" fill="#fff"/>
            </g>
            <g id="Grupo_279" data-name="Grupo 279" transform="translate(3.41 1.185)">
              <path id="Trazado_397" data-name="Trazado 397" d="M561.086,615.328a.847.847,0,0,1-.62-.258.3.3,0,0,1,.413-.422.3.3,0,0,0,.413,0,.287.287,0,0,0,.08-.291.283.283,0,0,1,.08-.29.29.29,0,0,1,.286-.075.282.282,0,0,0,.286-.076.287.287,0,0,0,.063-.322.3.3,0,0,1,.39-.389.3.3,0,0,0,.326-.06.284.284,0,0,0,.07-.291.307.307,0,0,1,.08-.293.278.278,0,0,1,.286-.072.313.313,0,0,0,.3-.076.3.3,0,0,0,.04-.362l-1.145-1.162a.293.293,0,0,1,.007-.417.286.286,0,0,1,.413,0l1.169,1.181a.257.257,0,0,1,.033.04.886.886,0,0,1-.1,1.133.863.863,0,0,1-.476.247.906.906,0,0,1-.256.485.856.856,0,0,1-.516.251.914.914,0,0,1-.256.526.887.887,0,0,1-.484.246.918.918,0,0,1-.246.485A.886.886,0,0,1,561.086,615.328Z" transform="translate(-560.376 -610.387)" fill="#fff"/>
            </g>
            <g id="Grupo_280" data-name="Grupo 280" transform="translate(0.192 1.979)">
              <path id="Trazado_398" data-name="Trazado 398" d="M505.084,628.919a.863.863,0,0,1-.6-.242.878.878,0,0,1-.238-.5.766.766,0,0,1-.493-.242.82.82,0,0,1-.246-.5.844.844,0,0,1-.5-.239.839.839,0,0,0-.739-.743.846.846,0,0,1,0-1.19l.239-.238a.864.864,0,0,1,1.193,0,.889.889,0,0,1,.239.5.848.848,0,0,1,.5.238.868.868,0,0,1,.239.5.825.825,0,0,1,.5.239.866.866,0,0,1,.239.5.82.82,0,0,1,.5.239.844.844,0,0,1,0,1.189l-.237.243A.862.862,0,0,1,505.084,628.919Zm-.479-1.4a.321.321,0,0,1,.216.083.309.309,0,0,1,.047.354.24.24,0,0,0,.04.294.25.25,0,0,0,.35,0l.239-.238a.242.242,0,0,0,0-.355.255.255,0,0,0-.3-.04.294.294,0,0,1-.4-.4.264.264,0,0,0-.047-.3.253.253,0,0,0-.3-.04.289.289,0,0,1-.35-.052.292.292,0,0,1-.056-.351.245.245,0,0,0-.04-.3.251.251,0,0,0-.294-.04.289.289,0,0,1-.35-.052.281.281,0,0,1-.047-.354.251.251,0,0,0-.4-.295l-.239.239a.257.257,0,0,0,0,.354.248.248,0,0,0,.3.04.3.3,0,0,1,.35.052.3.3,0,0,1,.056.353.241.241,0,0,0,.04.295.248.248,0,0,0,.293.044.3.3,0,0,1,.35.048.281.281,0,0,1,.047.354.256.256,0,0,0,.049.295.249.249,0,0,0,.294.043A.317.317,0,0,1,504.605,627.523Z" transform="translate(-502.023 -624.787)" fill="#fff"/>
            </g>
            <g id="Grupo_281" data-name="Grupo 281" transform="translate(0.65 2.666)">
              <path id="Trazado_399" data-name="Trazado 399" d="M510.336,637.257" transform="translate(-510.336 -637.257)" fill="#fff"/>
            </g>
            <g id="Grupo_282" data-name="Grupo 282" transform="translate(7.881 1.625)">
              <path id="Trazado_400" data-name="Trazado 400" d="M641.477,618.366" transform="translate(-641.477 -618.366)" fill="#fff"/>
            </g>
            <g id="Grupo_283" data-name="Grupo 283" transform="translate(6.839 2.663)">
              <path id="Trazado_401" data-name="Trazado 401" d="M622.574,637.2" transform="translate(-622.574 -637.196)" fill="#fff"/>
            </g>
          </g>
        </g>
        <path id="Trazado_402" data-name="Trazado 402" d="M489.915,469.244a6.682,6.682,0,0,0-5.208-2.347c-3.023,0-4.311.84-4.868,1.563-.558-.724-1.854-1.563-4.877-1.563a6.658,6.658,0,0,0-5.2,2.347l-.087.119v17.688l.8-1.026a5.96,5.96,0,0,1,4.493-1.992c4.264,0,4.4,1.718,4.4,1.734l.478-.008.469.008c0-.016.134-1.734,4.4-1.734a6.019,6.019,0,0,1,4.5,2l.8,1.022V469.363Zm-10.554,14.989c-.716-.573-2.028-1.086-4.4-1.086a6.911,6.911,0,0,0-4.406,1.555V469.67a5.892,5.892,0,0,1,4.406-1.886c4.264,0,4.4,1.718,4.4,1.723Zm9.752.469a6.873,6.873,0,0,0-4.406-1.555c-2.37,0-3.675.513-4.4,1.086V469.518c0-.016.134-1.734,4.4-1.734a5.843,5.843,0,0,1,4.406,1.886Z" transform="translate(-453.496 -450.206)" fill="#fff"/>
        <g id="Grupo_287" data-name="Grupo 287" transform="translate(9.019 9.024)">
          <g id="Grupo_286" data-name="Grupo 286">
            <path id="Trazado_403" data-name="Trazado 403" d="M357.176,362.492a17.319,17.319,0,1,1,17.314-17.319A17.342,17.342,0,0,1,357.176,362.492Zm0-33.752a16.433,16.433,0,1,0,16.432,16.433A16.448,16.448,0,0,0,357.176,328.74Z" transform="translate(-339.853 -327.854)" fill="#fff"/>
          </g>
        </g>
        <g id="Grupo_289" data-name="Grupo 289">
          <g id="Grupo_288" data-name="Grupo 288">
            <path id="Trazado_404" data-name="Trazado 404" d="M202.618,216.876a26.343,26.343,0,1,1,26.343-26.343A26.375,26.375,0,0,1,202.618,216.876Zm0-51.8a25.452,25.452,0,1,0,25.451,25.452A25.485,25.485,0,0,0,202.618,165.081Z" transform="translate(-176.275 -164.19)" fill="#fff"/>
          </g>
        </g>
      </g>
      <path id="Trazado_405" data-name="Trazado 405" d="M693.019,583.779h-.067a2.594,2.594,0,0,1-2.047-1.01l-1.27-1.659a.632.632,0,0,1,.859-.9l.681.468v-3.189a8.825,8.825,0,0,0,1.582-.953.639.639,0,0,0,.943.314.64.64,0,0,1,.639.639v.171a.639.639,0,0,1,.943.563v3.3C695.282,583.544,693.991,583.779,693.019,583.779Zm-2.885-3.145a.084.084,0,0,0-.061.032.074.074,0,0,0-.006.112l1.27,1.659a2.045,2.045,0,0,0,1.614.8h.067c1.06,0,1.717-.287,1.717-1.717v-3.3a.094.094,0,1,0-.188,0v1.414a.378.378,0,1,1-.755,0v-2.147a.094.094,0,0,0-.188,0v2.147a.377.377,0,1,1-.755,0v-2.461a.094.094,0,1,0-.188,0v2.461a.377.377,0,1,1-.755,0v-2.147a.094.094,0,0,0-.188,0v3.509a.377.377,0,0,1-.591.311l-.944-.649A.091.091,0,0,0,690.135,580.634Z" transform="translate(-661.2 -553.794)" fill="#fff"/>
    </g>
  </g>
</svg>
