<svg xmlns="http://www.w3.org/2000/svg" xmlns:xlink="http://www.w3.org/1999/xlink" width="381.041" height="413.34" viewBox="0 0 381.041 413.34">
  <defs>
    <clipPath id="clip-path">
      <rect id="Rectángulo_34" data-name="Rectángulo 34" width="349.359" height="333.735" fill="none"/>
    </clipPath>
    <clipPath id="clip-path-3">
      <rect id="Rectángulo_32" data-name="Rectángulo 32" width="153.783" height="113.266" fill="none"/>
    </clipPath>
    <clipPath id="clip-path-4">
      <path id="Trazado_414" data-name="Trazado 414" d="M414.062,482.6l114.084-72.565-153.783-40.7Z" transform="translate(-374.363 -369.331)" fill="none"/>
    </clipPath>
    <linearGradient id="linear-gradient" x1="-1.272" y1="1.004" x2="-1.268" y2="1.004" gradientUnits="objectBoundingBox">
      <stop offset="0" stop-color="#7c98cc"/>
      <stop offset="0.891" stop-color="#dbeeff"/>
      <stop offset="1" stop-color="#dbeeff"/>
    </linearGradient>
  </defs>
  <g id="Grupo_376" data-name="Grupo 376" transform="translate(-1030.319 -292)">
    <g id="Grupo_246" data-name="Grupo 246" transform="translate(-29 -2.164)">
      <g id="Grupo_237" data-name="Grupo 237" transform="translate(1059.319 294.164)" opacity="0.208">
        <g id="Grupo_224" data-name="Grupo 224" transform="translate(124.905)">
          <g id="Grupo_223" data-name="Grupo 223">
            <path id="Trazado_355" data-name="Trazado 355" d="M1370.461,483.778a62.358,62.358,0,1,1-62.359-62.332,62.366,62.366,0,0,1,62.359,62.332" transform="translate(-1245.746 -421.446)" fill="#4aa84f"/>
          </g>
        </g>
        <g id="Grupo_226" data-name="Grupo 226" transform="translate(124.905 144.306)">
          <g id="Grupo_225" data-name="Grupo 225">
            <path id="Trazado_356" data-name="Trazado 356" d="M1370.461,548.535a62.358,62.358,0,1,1-62.359-62.357,62.36,62.36,0,0,1,62.359,62.357" transform="translate(-1245.746 -486.179)" fill="#4aa84f"/>
          </g>
        </g>
        <g id="Grupo_228" data-name="Grupo 228" transform="translate(124.905 288.612)">
          <g id="Grupo_227" data-name="Grupo 227">
            <path id="Trazado_357" data-name="Trazado 357" d="M1370.461,613.3a62.358,62.358,0,1,1-62.359-62.383,62.357,62.357,0,0,1,62.359,62.383" transform="translate(-1245.746 -550.912)" fill="#4aa84f"/>
          </g>
        </g>
        <g id="Grupo_230" data-name="Grupo 230" transform="translate(0 72.282)">
          <g id="Grupo_229" data-name="Grupo 229">
            <path id="Trazado_358" data-name="Trazado 358" d="M1283.293,462.243a62.377,62.377,0,1,1-85.22,22.821,62.384,62.384,0,0,1,85.22-22.821" transform="translate(-1189.715 -453.87)" fill="#4aa84f"/>
          </g>
        </g>
        <g id="Grupo_232" data-name="Grupo 232" transform="translate(249.958 216.6)">
          <g id="Grupo_231" data-name="Grupo 231">
            <path id="Trazado_359" data-name="Trazado 359" d="M1395.409,526.969A62.372,62.372,0,1,1,1310.2,549.79a62.39,62.39,0,0,1,85.208-22.821" transform="translate(-1301.842 -518.609)" fill="#4aa84f"/>
          </g>
        </g>
        <g id="Grupo_234" data-name="Grupo 234" transform="translate(0.167 216.612)">
          <g id="Grupo_233" data-name="Grupo 233">
            <path id="Trazado_360" data-name="Trazado 360" d="M1220.965,526.962a62.379,62.379,0,1,1-22.821,85.191,62.378,62.378,0,0,1,22.821-85.191" transform="translate(-1189.79 -518.614)" fill="#4aa84f"/>
          </g>
        </g>
        <g id="Grupo_236" data-name="Grupo 236" transform="translate(250.129 72.283)">
          <g id="Grupo_235" data-name="Grupo 235">
            <path id="Trazado_361" data-name="Trazado 361" d="M1333.106,462.242a62.363,62.363,0,1,1-22.834,85.177,62.357,62.357,0,0,1,22.834-85.177" transform="translate(-1301.919 -453.871)" fill="#4aa84f"/>
          </g>
        </g>
      </g>
    </g>
    <g id="Grupo_375" data-name="Grupo 375" transform="translate(1062 349.133)">
      <g id="Grupo_374" data-name="Grupo 374" clip-path="url(#clip-path)">
        <g id="Grupo_373" data-name="Grupo 373">
          <g id="Grupo_372" data-name="Grupo 372" clip-path="url(#clip-path)">
            <path id="Trazado_410" data-name="Trazado 410" d="M185.511,583.328l-25.7-6.911c.768-1.275.4-3.382,2.979-5.146l19.7-13.5a14.062,14.062,0,0,1,10.17-1.732l25.7,6.911c3.018.812,3.382,2.919.807,4.683l-19.7,13.5c-2.575,1.764-7.151,2.543-13.957,2.195" transform="translate(-76.322 -265.398)" fill="#c2d8f0"/>
            <path id="Trazado_411" data-name="Trazado 411" d="M201.3,565.006l.488,5.23-7.021.835-52.858,7.411-.41-4.812Z" transform="translate(-67.579 -269.833)" fill="#0e2e82"/>
            <path id="Trazado_412" data-name="Trazado 412" d="M170.617,584.234l-25.7-6.911c-3.019-.812-3.382-2.919-.807-4.683l19.7-13.5a14.062,14.062,0,0,1,10.17-1.731l25.7,6.911c3.019.811,3.382,2.919.807,4.683l-19.7,13.5a14.062,14.062,0,0,1-10.17,1.732" transform="translate(-68.004 -266.052)" fill="#0e2e82"/>
            <g id="Grupo_371" data-name="Grupo 371" transform="translate(195.576 192.947)" opacity="0.43" style="mix-blend-mode: multiply;isolation: isolate">
              <g id="Grupo_370" data-name="Grupo 370">
                <g id="Grupo_369" data-name="Grupo 369" clip-path="url(#clip-path-3)">
                  <g id="Grupo_368" data-name="Grupo 368">
                    <g id="Grupo_367" data-name="Grupo 367" clip-path="url(#clip-path-4)">
                      <path id="Trazado_413" data-name="Trazado 413" d="M374.363,344.765l153.783-26.873V458.03L374.363,484.9Z" transform="translate(-374.363 -344.765)" fill="url(#linear-gradient)"/>
                    </g>
                  </g>
                </g>
              </g>
            </g>
            <path id="Trazado_415" data-name="Trazado 415" d="M296.9,39.431,128.6.144A3.3,3.3,0,0,0,125,1.3l0-.005-9.315,7.251,8.053,19.486V242.809c0,3.644,2.186,7.254,4.858,8.022l146.895,42.212L290,306.213l9.457-7.2-.039-.067c1.4-.764,2.342-2.591,2.342-4.979V47.452c0-3.644-2.186-7.254-4.858-8.022" transform="translate(-55.249 0)" fill="#0e2e82"/>
            <path id="Trazado_416" data-name="Trazado 416" d="M286.118,313.171,118.3,268.241c-2.664-.713-4.844-4.279-4.844-7.923V18.99c0-3.644,2.18-6.042,4.844-5.328L286.118,53.4c2.664.713,4.844,4.279,4.844,7.923V307.842c0,3.644-2.18,6.042-4.844,5.329" transform="translate(-54.184 -6.465)" fill="#91b0f5"/>
            <path id="Trazado_417" data-name="Trazado 417" d="M293.722,313.355,138.769,271.869V50.081L293.723,86.594Z" transform="translate(-66.273 -23.918)" fill="#fff"/>
            <path id="Trazado_418" data-name="Trazado 418" d="M293.722,313.355,138.769,271.869V50.081L293.723,86.594Z" transform="translate(-66.273 -23.918)" fill="none" stroke="#35519c" stroke-width="1.144"/>
            <path id="Trazado_419" data-name="Trazado 419" d="M278.843,37.935l-1.453-.351c-1.161-7.292-6.563-13.992-12.864-15.512L222.8,12.006c-6.3-1.52-11.432,2.638-12.243,9.454l-1.453-.351c-7-1.688-12.555,3.624-12.352,11.805s6.094,16.256,13.091,17.944l69.739,16.826c7,1.688,12.555-3.624,12.352-11.805s-6.094-16.256-13.091-17.944" transform="translate(-93.962 -5.584)" fill="#0e2e82"/>
            <line id="Línea_1" data-name="Línea 1" x2="45.083" y2="11.913" transform="translate(139.447 211.506)" fill="none" stroke="#849ad1" stroke-linecap="round" stroke-linejoin="round" stroke-width="4.964"/>
            <line id="Línea_2" data-name="Línea 2" x2="75.684" y2="19.839" transform="translate(139.086 229.479)" fill="none" stroke="#849ad1" stroke-linecap="round" stroke-linejoin="round" stroke-width="4.964"/>
            <path id="Trazado_420" data-name="Trazado 420" d="M193.824,408.612l-29.2-7.759-.016-32.77,29.205,7.758Z" transform="translate(-78.611 -175.787)" fill="#3072ff"/>
            <path id="Trazado_421" data-name="Trazado 421" d="M176.447,398.187l6.644,11.6,8.661-11.2" transform="translate(-84.267 -190.165)" fill="none" stroke="#fff" stroke-linecap="round" stroke-linejoin="round" stroke-width="5.531"/>
            <line id="Línea_3" data-name="Línea 3" x2="45.083" y2="11.913" transform="translate(139.447 153.745)" fill="none" stroke="#849ad1" stroke-linecap="round" stroke-linejoin="round" stroke-width="4.964"/>
            <line id="Línea_4" data-name="Línea 4" x2="75.684" y2="19.839" transform="translate(139.086 171.718)" fill="none" stroke="#849ad1" stroke-linecap="round" stroke-linejoin="round" stroke-width="4.964"/>
            <path id="Trazado_422" data-name="Trazado 422" d="M193.824,298.047l-29.2-7.759-.016-32.77,29.205,7.759Z" transform="translate(-78.611 -122.985)" fill="#3072ff"/>
            <path id="Trazado_423" data-name="Trazado 423" d="M176.447,287.623l6.644,11.6,8.661-11.2" transform="translate(-84.267 -137.362)" fill="none" stroke="#fff" stroke-linecap="round" stroke-linejoin="round" stroke-width="5.531"/>
            <line id="Línea_5" data-name="Línea 5" x2="45.083" y2="11.913" transform="translate(139.447 95.984)" fill="none" stroke="#849ad1" stroke-linecap="round" stroke-linejoin="round" stroke-width="4.964"/>
            <line id="Línea_6" data-name="Línea 6" x2="75.684" y2="19.839" transform="translate(139.086 113.957)" fill="none" stroke="#849ad1" stroke-linecap="round" stroke-linejoin="round" stroke-width="4.964"/>
            <path id="Trazado_424" data-name="Trazado 424" d="M193.824,187.483l-29.2-7.759-.016-32.77,29.205,7.759Z" transform="translate(-78.611 -70.182)" fill="#3072ff"/>
            <path id="Trazado_425" data-name="Trazado 425" d="M176.447,177.059l6.644,11.6,8.661-11.2" transform="translate(-84.267 -84.559)" fill="none" stroke="#fff" stroke-linecap="round" stroke-linejoin="round" stroke-width="5.531"/>
            <path id="Trazado_426" data-name="Trazado 426" d="M270.239,45.042l-1.453-.351C267.624,37.4,262.223,30.7,255.922,29.18L214.2,19.112c-6.3-1.52-11.433,2.638-12.244,9.454l-1.453-.351c-7-1.688-12.555,3.624-12.352,11.805s6.095,16.256,13.091,17.944l69.738,16.826c7,1.688,12.555-3.624,12.352-11.805s-6.094-16.256-13.091-17.944" transform="translate(-89.852 -8.978)" fill="#bad0ff"/>
            <line id="Línea_7" data-name="Línea 7" x2="58.803" y2="15.237" transform="translate(115.623 26.351)" fill="none" stroke="#fff" stroke-linecap="round" stroke-linejoin="round" stroke-width="3.104"/>
            <path id="Trazado_427" data-name="Trazado 427" d="M175.678,233.719l7.148-28.9-25.334,16c-3.569,8.04,13.875,18.7,18.186,12.9" transform="translate(-74.986 -97.818)" fill="#dedfe6"/>
            <path id="Trazado_428" data-name="Trazado 428" d="M198.069,202.379l-4.336,14c-.482-4.215-2.531-6.716-7.291-6.25Z" transform="translate(-89.04 -96.651)" fill="#fffcfa"/>
            <path id="Trazado_429" data-name="Trazado 429" d="M19.438,408.736c.053-.062.1-.126.153-.189l0,0,15.8-18.676c4.407-5.208,4.362-12.655-.1-16.633s-11.654-2.981-16.061,2.227l-15.8,18.676,0,0c-.053.061-.108.119-.16.181-4.408,5.208-4.363,12.655.1,16.633s11.654,2.981,16.061-2.227" transform="translate(0 -177.088)" fill="#3072ff"/>
            <path id="Trazado_430" data-name="Trazado 430" d="M20.168,321.2l71.046-83.7c4.442-2.095,8.161-.582,10.8,6.341L36.15,319.723c-5-8.338-10.494-3.3-15.982,1.474" transform="translate(-9.632 -113.006)" fill="#11389e"/>
            <path id="Trazado_431" data-name="Trazado 431" d="M114.765,250.357c1.793-.036,5.942-1.092,7.651,5.694l-68.758,81.39c-2.4-7.312-6.783-9.91-6.783-9.91Z" transform="translate(-22.386 -119.527)" fill="#0e2e82"/>
            <path id="Trazado_432" data-name="Trazado 432" d="M36.746,403.392c-.062.052.1-.126.153-.189l0,0,7.021-8.385c4.041-5.761-10.719-21.334-15.678-15.694l.16-.181,0,0-8.091,9.547,0,0c-.053.061-.225.231-.161.181,4.786-3.705,21.586,10.548,16.592,14.717" transform="translate(-9.618 -180.484)" fill="#fff"/>
            <path id="Trazado_433" data-name="Trazado 433" d="M62.372,417.729l17.086,2.981V402.865l-17.086-2.981Z" transform="translate(-29.787 -190.975)" fill="#27427a"/>
            <path id="Trazado_434" data-name="Trazado 434" d="M65.524,555.376c-7.867-2.487-21.1-2.393-29.56.211a20.99,20.99,0,0,0-3.626,1.451,42.367,42.367,0,0,0-17.908.832c-5.944,1.829-6.281,4.73-.754,6.478,5.312,1.68,14.1,1.679,20.052.053.366.138.75.274,1.162.4,7.867,2.488,21.1,2.393,29.561-.211s8.939-6.731,1.073-9.219" transform="translate(-4.653 -264.372)" fill="#c2d8f0"/>
            <path id="Trazado_435" data-name="Trazado 435" d="M87.41,555.915l6.016,1.008c4.407-.6,6.615-1.375,8.045.14l.405.429c.531,1.055-.305,2.747-1.924,3.376l-11.98,4.783c-2.34.555-4.8-.252-4.81-2.345,0,0,.013-5.853,1.081-6.085,2.145-.466,1.295-.863,3.166-1.307" transform="translate(-39.717 -265.492)" fill="#1737a2"/>
            <path id="Trazado_436" data-name="Trazado 436" d="M91.822,554.042c-.029,2.453-6,2.381-5.967-.072l.1-7.973,5.967.072Z" transform="translate(-41.002 -260.756)" fill="#a8acba"/>
            <path id="Trazado_437" data-name="Trazado 437" d="M87.51,470.074c-2.086,2.822-7.26,2.775-8.374.863-.647-11.279-4.452-23.288-.1-38.794L73.99,385.107l21.019,4.2-4.667,49.655Z" transform="translate(-35.336 -183.918)" fill="#1737a2"/>
            <path id="Trazado_438" data-name="Trazado 438" d="M18.191,533.334c-1.336,1.787-6.334-1.48-5-3.267l4.343-5.806,5,3.267Z" transform="translate(-6.193 -250.375)" fill="#a8acba"/>
            <path id="Trazado_439" data-name="Trazado 439" d="M22.518,465.878c-2.929,1.75-6.881-3.155-7.286-5.148,3.527-9.862,5.844-24.1,15.046-29.726l3.91-26.512c-.334-4.069.422-7.3,2.1-13.258l15.1,8.892L37.928,440.143a10.216,10.216,0,0,1-.963,2.065Z" transform="translate(-7.274 -186.844)" fill="#1737a2"/>
            <path id="Trazado_440" data-name="Trazado 440" d="M92.415,271.726c-.135,4.83-4.539,7.7-8.129,5.489S77.9,269.3,78.031,264.47s3.154-6.956,6.744-4.747,7.775,7.173,7.64,12" transform="translate(-37.263 -123.621)" fill="#fababa"/>
            <path id="Trazado_441" data-name="Trazado 441" d="M80.841,297.616l-.494-.128a3.142,3.142,0,0,1-2.248-3.817l2.433-9.4a3.142,3.142,0,0,1,3.817-2.248l.494.128a3.142,3.142,0,0,1,2.248,3.817l-1.01,9.381c-.432,1.668-3.573,2.7-5.241,2.272" transform="translate(-37.251 -134.638)" fill="#fababa"/>
            <path id="Trazado_442" data-name="Trazado 442" d="M71.668,275.007s.9,3.255,6.831,2.589c4.476-.5,1.265-8.181,5.363-10.083,5.541-2.571,3.355-7.995.9-9.766s-5.562-.748-9.4.535c-4.056,1.357-9.577,4.5-3.7,16.726" transform="translate(-33.004 -122.641)" fill="#80653d"/>
            <path id="Trazado_443" data-name="Trazado 443" d="M92.935,280.112a2.127,2.127,0,1,1-2.067-2.186,2.127,2.127,0,0,1,2.067,2.186" transform="translate(-42.352 -132.731)" fill="#e5a7a7"/>
            <path id="Trazado_444" data-name="Trazado 444" d="M50.76,351.429c.511-11.86,2.294-19.608,1.715-29.861.224-19.592,2.672-20.431,6.994-21.672l4.321-.482c1.342.255,2.585.873,3.912,1.2,5.556,1.359,9.118,1.662,13.109,3.823,3.554,1.925,3.76,7.068,3.752,11.376.96,12.629,1.215,31.639,1.393,37.873-2.02,8.924-31.815,3.786-35.2-2.255" transform="translate(-24.242 -142.993)" fill="#4aa84f"/>
            <path id="Trazado_445" data-name="Trazado 445" d="M93.575,295.117l-.778-1a3.193,3.193,0,0,0,2.694.009,4.093,4.093,0,0,1-1.916.994" transform="translate(-44.318 -140.462)" fill="#e5a7a7"/>
            <path id="Trazado_446" data-name="Trazado 446" d="M105.694,333.623l-3.259,3.516c-3.827,15.443-2.054,31.1-8.329,37.688,3.84-.01,7.358-.516,9.96-2.43a3.912,3.912,0,0,0,1.515-2.976Z" transform="translate(-44.943 -159.33)" fill="#3e9343"/>
            <path id="Trazado_447" data-name="Trazado 447" d="M74.162,298.823s-1.039,2.84,2.306,3.9,8.873-.8,8.873-.8-3.679-3.856-11.179-3.093" transform="translate(-35.345 -142.663)" fill="#fff"/>
            <path id="Trazado_448" data-name="Trazado 448" d="M92.359,279.731h0a.712.712,0,0,1-.8-.609L90.3,274.609c-.052-.387.956-.158,1.343-.21s1.493-.4,1.545-.016l-.222,4.551a.711.711,0,0,1-.609.8" transform="translate(-43.125 -130.953)" fill="#80653d"/>
            <path id="Trazado_449" data-name="Trazado 449" d="M150.05,310.44h0a3.572,3.572,0,0,0,4.973-.8L157.8,305.8a3.572,3.572,0,0,0-.8-4.973h0a3.572,3.572,0,0,0-4.973.8l-2.777,3.838a3.572,3.572,0,0,0,.8,4.973" transform="translate(-70.957 -143.348)" fill="#fababa"/>
            <path id="Trazado_450" data-name="Trazado 450" d="M146.536,316.368s-2.639,16.1-5.477,20.35-10.224-1.528-10.224-1.528l9.27-20.991Z" transform="translate(-62.484 -150.054)" fill="#fababa"/>
            <path id="Trazado_451" data-name="Trazado 451" d="M99.064,324.2l18.849,13.43c4.058,3.8,13.96-6.269,8.666-10.3-.334-.254-22.547-17.507-22.547-17.507s-7.639,7.413-4.968,14.377" transform="translate(-47.04 -147.966)" fill="#4aa84f"/>
            <path id="Trazado_452" data-name="Trazado 452" d="M133.773,348.494c3.571,1.24,8.868-3.807,7.886-7.725" transform="translate(-63.887 -162.743)" fill="none" stroke="#fff" stroke-linecap="round" stroke-linejoin="round" stroke-width="1.417"/>
            <path id="Trazado_453" data-name="Trazado 453" d="M15.558,538.035l.085,5.53c1.254,3.833,4.128,4.286,3.01,5.809l-.946.825c-.946.96-4.1.664-4.757-.177L7.4,541.61a5.324,5.324,0,0,1,1.222-5.842s1.645-1.634,2.479-1.656c1.989-.054,3.754,2.326,4.456,3.923" transform="translate(-3.341 -255.079)" fill="#1737a2"/>
            <path id="Trazado_454" data-name="Trazado 454" d="M486.488,584.542c0,4.918,10.186,8.9,22.75,8.9s22.75-3.987,22.75-8.9-10.186-8.9-22.75-8.9-22.75,3.987-22.75,8.9" transform="translate(-232.335 -274.911)" fill="#c2d8f0"/>
            <path id="Trazado_455" data-name="Trazado 455" d="M473.312,350.526l-12.156,25.749,4.9,5.372,16.86-27.709Z" transform="translate(-220.237 -167.403)" fill="#fababa"/>
            <path id="Trazado_456" data-name="Trazado 456" d="M479.453,380.663l-7.219-4.33s-.288,4.565,2.807,5.521,4.412-1.191,4.412-1.191" transform="translate(-225.524 -179.728)" fill="#e5a7a7"/>
            <path id="Trazado_457" data-name="Trazado 457" d="M545.284,586.744l-.252-12.449c.292-1.175,1.867-1.417,3.119-2.517a1.544,1.544,0,0,1,1.915-.141l1.188.867c1.762,1.186,1.854,1.54,1.47,3.091l-2.284,9.205a5.866,5.866,0,0,1-3.09,3.72l-.373.141c-1.315.5-2.076-.367-1.692-1.917" transform="translate(-260.294 -272.872)" fill="#0e2e82"/>
            <path id="Trazado_458" data-name="Trazado 458" d="M548.61,572.71s-.681,7.943-2.628,8.428c0,0-1.249.308-1.289-1.7s-.562-5.909-.562-5.909Z" transform="translate(-259.864 -273.513)" fill="#fababa"/>
            <path id="Trazado_459" data-name="Trazado 459" d="M479.459,377.267s-5.984.156-7.219-4.33l1.846-3.715,7.781,4.1Z" transform="translate(-225.531 -176.332)" fill="#fff"/>
            <path id="Trazado_460" data-name="Trazado 460" d="M535.676,295.522s9.125,1.786,11.364,5.28-1.722,12.113-1.722,12.113v-4.5s5.272-8.66-9.284-10.559c-9.774-1.275-.358-2.333-.358-2.333" transform="translate(-253.877 -141.134)" fill="#0e2e82"/>
            <path id="Trazado_461" data-name="Trazado 461" d="M523.845,296.029s15.051,9.745,9.471,19.182-20.705,13.5-20.705,13.5l-6.147-31.7Z" transform="translate(-241.875 -141.376)" fill="#0e2e82"/>
            <path id="Trazado_462" data-name="Trazado 462" d="M492.371,585.974l9.3-6.528a11.959,11.959,0,0,1,5.357-.234,1.366,1.366,0,0,1,1.187,1.4l-.1,1.44c-.057,2.076-.314,2.36-1.881,2.992l-9.3,3.756a6.264,6.264,0,0,1-4.964-.16l-.33-.2c-1.164-.721-.834-1.828.733-2.461" transform="translate(-234.462 -276.527)" fill="#0e2e82"/>
            <path id="Trazado_463" data-name="Trazado 463" d="M508.324,493.426c-.108,2.886-5.974,3.925-6.085,1-7.118-27.17-8.032-52.04-9.392-80.774L510.8,398.536c-1.449,24.94-3.723,46.058-3.278,67.592.058,2.791,1.449,5.747,1.6,8.43.322,5.572-1.283,13.444-.8,18.868" transform="translate(-235.372 -190.331)" fill="#fababa"/>
            <path id="Trazado_464" data-name="Trazado 464" d="M515.769,507.477c-.155-2.683-1.546-5.639-1.6-8.43-.147-7.126,0-14.206.323-21.395.609-13.687,4.156-14.733,3.51-.2-.32,7.188-.47,14.268-.323,21.395.057,2.791,1.449,5.747,1.6,8.43.322,5.572-1.283,13.444-.8,18.867-.083,2.2-2.386-13.1-2.708-18.669" transform="translate(-245.526 -223.011)" fill="#e5a7a7"/>
            <path id="Trazado_465" data-name="Trazado 465" d="M534.678,519.905c.639,2.532-2.961,4.979-4.572,2.7-4.843-9.975-8.389-17.659-11.687-25.2-2.5-5.71-3.034-12.534-4.081-19.385-2.5-16.343,14.389-20.467,13.547-3.856a117.868,117.868,0,0,0,.618,20.4c.4,3.279,2.274,3.117,3.357,8.625,1.1,5.595,1.317,8.717,2.819,16.71" transform="translate(-245.515 -221.387)" fill="#fababa"/>
            <path id="Trazado_466" data-name="Trazado 466" d="M483.815,331.746l-11.269,20.12s2.762,9.072,12.831,4.988c13.947-5.657-1.562-25.107-1.562-25.107" transform="translate(-225.677 -158.434)" fill="#3e9343"/>
            <path id="Trazado_467" data-name="Trazado 467" d="M515.159,404.828c7.813.156.053,31.06,3.141,53.281,0,0-16.29,14.984-30.087,1.861l.511-51.081Z" transform="translate(-233.159 -193.336)" fill="#173891"/>
            <path id="Trazado_468" data-name="Trazado 468" d="M522.381,464.691c9.223-13.291,4.016-43.033,6.356-58.229l2.74-1.635c7.813.156.054,31.06,3.141,53.281a31.885,31.885,0,0,1-12.237,6.583" transform="translate(-249.477 -193.335)" fill="#0c2973"/>
            <path id="Trazado_469" data-name="Trazado 469" d="M486.247,366.958c-.454-5.465,2.172,5.44,2.071-.885-.039-2.431-1.217-9.4-1.8-14-.549-4.3-5.048-6.862-4.12-12.108.122-2.862,5.182-8.163,5.4-10.254.348-3.306.579-6.359,7.53-9.612l3.056.662a20.126,20.126,0,0,1,4.194,1.4c14.172,6.564,17.261,6.885,16.274,15.185-.161,4.269-2.7.948-3.467,3.774-1.468,5.423-7.194,10.944-5.176,20.454.407,1.919,1.91,3.227.2,4.5-7.409,5.518-21.559,6.577-24.159.885" transform="translate(-230.319 -152.87)" fill="#4aa84f"/>
            <path id="Trazado_470" data-name="Trazado 470" d="M488.993,409.713c-.008.205-.018-.014,0,0" transform="translate(-233.526 -195.669)" fill="#ff5cab"/>
            <path id="Trazado_471" data-name="Trazado 471" d="M534.146,356.139l2.966,10.3-1.777,15.137-4.876,1.711V370.22c2.066-4.083,2.941-9.035,3.687-14.081" transform="translate(-253.335 -170.084)" fill="#3e9343"/>
            <path id="Trazado_472" data-name="Trazado 472" d="M458.2,413.212l2.678,1.523c1.308.744,2.992.707,3.741-.082l.525-.553c.75-.79.293-2.046-1.017-2.791l-2.678-1.524c-1.308-.744-2.991-.707-3.741.083l-.525.553c-.75.79-.293,2.046,1.017,2.791" transform="translate(-218.168 -195.449)" fill="#fababa"/>
            <path id="Trazado_473" data-name="Trazado 473" d="M481.7,405.952l.08-.569-.951.273-.141-.364-21.149-10.832a1.468,1.468,0,0,0-1.078.024L448,398.936l.019-.127-1.9.566-.09.6h.013a.26.26,0,0,0,.149.158L468.2,411.41a1.468,1.468,0,0,0,1.078-.024l12.12-5.155c.184-.078.288-.181.3-.279Z" transform="translate(-213.014 -188.341)" fill="#bfc6c9"/>
            <path id="Trazado_474" data-name="Trazado 474" d="M468.355,410.258l-22.008-11.272c-.255-.131-.186-.355.152-.5l12.12-5.155a1.468,1.468,0,0,1,1.078-.024L481.7,404.58c.255.131.187.355-.151.5l-12.12,5.155a1.469,1.469,0,0,1-1.078.024" transform="translate(-213.091 -187.791)" fill="#dde5e8"/>
            <path id="Trazado_475" data-name="Trazado 475" d="M488.83,408.52l-5.326-2.728c-.062-.031-.045-.086.037-.121l2.933-1.248a.353.353,0,0,1,.261-.006l5.327,2.728c.062.031.045.086-.037.121l-2.933,1.248a.358.358,0,0,1-.261.006" transform="translate(-230.892 -193.13)" fill="#bfc6c9"/>
            <path id="Trazado_476" data-name="Trazado 476" d="M511.993,394.492a45.215,45.215,0,0,0,21.322-6.162,5.658,5.658,0,0,0,2.835-4.717c.094-4.387.042-12.173-1.441-13.44l-6.817,7.812.321,4.353c-7.438,3.275-11.35,7.156-15.894,8.536Z" transform="translate(-244.516 -176.786)" fill="#fababa"/>
            <path id="Trazado_477" data-name="Trazado 477" d="M532.655,387.346c1.54-1.251,2.1-3.825,2.141-5.739a65.979,65.979,0,0,0-.47-10.871l.5-.57c1.484,1.267,1.535,9.053,1.441,13.44a5.658,5.658,0,0,1-2.835,4.718,45.212,45.212,0,0,1-21.322,6.162s13.934-1.769,20.547-7.139" transform="translate(-244.571 -176.783)" fill="#e5a7a7"/>
            <path id="Trazado_478" data-name="Trazado 478" d="M520.435,325.879s-5.2,12.46-12.753,9.214-2.08-14.517-2.08-14.517a63.846,63.846,0,0,1,14.833,5.3" transform="translate(-240.548 -153.099)" fill="#fababa"/>
            <path id="Trazado_479" data-name="Trazado 479" d="M514.18,321.715l-.5.1a2.824,2.824,0,0,1-3.471-2.287l-1.224-9.009A3.293,3.293,0,0,1,511.667,307l.5-.1a2.824,2.824,0,0,1,3.471,2.286l2.523,8.385c.217,1.6-2.29,3.807-3.982,4.147" transform="translate(-243.067 -146.535)" fill="#fababa"/>
            <path id="Trazado_480" data-name="Trazado 480" d="M463.772,391.24a2.21,2.21,0,0,0-1.081-1.324l-23.26-11.642a.746.746,0,0,0-.514-.1h0l0,0a.312.312,0,0,0-.12.064l-.767.574.7,0,2.243,11.138a2.209,2.209,0,0,0,1.082,1.324l21.993,11.009.711.659.088.157a3.675,3.675,0,0,0,1.507-.413Z" transform="translate(-209.19 -180.602)" fill="#fff"/>
            <path id="Trazado_481" data-name="Trazado 481" d="M461.877,382.577a2.209,2.209,0,0,0-1.081-1.324l-23.26-11.642a.746.746,0,0,0-.514-.1h0l0,0a.314.314,0,0,0-.12.064l-.767.574.7,0,2.243,11.138a2.209,2.209,0,0,0,1.082,1.324l21.994,11.009.711.659.088.157a3.674,3.674,0,0,0,1.507-.413Z" transform="translate(-208.285 -176.465)" fill="#fff"/>
            <path id="Trazado_482" data-name="Trazado 482" d="M436.716,370.773l23.259,11.642a2.205,2.205,0,0,1,1.082,1.324L463.325,395c0,.008,0,.015,0,.022l.907,4.507c.1.481-.231.667-.731.416L440.244,388.3a2.209,2.209,0,0,1-1.082-1.324l-2.268-11.26c0-.008,0-.015,0-.022l-.908-4.507c-.1-.481.231-.667.732-.416" transform="translate(-208.208 -177.019)" fill="#0e2e82"/>
            <path id="Trazado_483" data-name="Trazado 483" d="M460.208,397.465c.026.82-.745,1.086-1.722.594a3.28,3.28,0,0,1-1.815-2.374c-.026-.82.745-1.086,1.722-.594a3.279,3.279,0,0,1,1.815,2.374" transform="translate(-218.095 -188.568)" fill="#fff"/>
            <path id="Trazado_484" data-name="Trazado 484" d="M512.144,582.272s-6.648,2.712-7.852,1.918c-1.015-.67,3.9-3.885,3.9-3.885Z" transform="translate(-240.772 -277.14)" fill="#fababa"/>
            <path id="Trazado_485" data-name="Trazado 485" d="M517.634,325.893s-4.581,12.848-12.122,9.437c-5.852-2.647-1.606-13.274-1.606-13.274l-1.578.3s-5.052,12.478,3.491,15.963c7.519,3.068,13.823-11.467,13.823-11.467Z" transform="translate(-239.191 -153.806)" fill="#fff"/>
            <path id="Trazado_486" data-name="Trazado 486" d="M510.368,318.955a9.584,9.584,0,0,0,6.993-3.982s-2.85,5.9-6.645,6.543Z" transform="translate(-243.74 -150.424)" fill="#e5a7a7"/>
            <path id="Trazado_487" data-name="Trazado 487" d="M524.4,378.849s-5.394,4.805-9.179,3.992c0,0,6.7,2.374,9.179,1.531s0-5.523,0-5.523" transform="translate(-246.059 -180.929)" fill="#3e9343"/>
            <path id="Trazado_488" data-name="Trazado 488" d="M488,376.237s.047.072.134.193c.425.6,1.8,2.39,3.2,2.836l-2.625.149" transform="translate(-233.056 -179.682)" fill="#3e9343"/>
            <path id="Trazado_489" data-name="Trazado 489" d="M549.5,393.788l-6.456-.33a6.333,6.333,0,0,0,6.377,1.975Z" transform="translate(-259.344 -187.906)" fill="#e5a7a7"/>
            <path id="Trazado_490" data-name="Trazado 490" d="M550.86,389.24s-3.185,2.47-8.075.457l-.281-3.521,8.356-.592Z" transform="translate(-259.087 -184.146)" fill="#fff"/>
            <path id="Trazado_491" data-name="Trazado 491" d="M536.578,345.72l2.244,14.719a4.138,4.138,0,0,0,3.813,3.71c2.86.115,6.538-.407,6.544-3.857a60.769,60.769,0,0,0-3.715-21.331c-.713-1.895-2.635-2.435-4.92-3.91-.369-.239-.223,1.96-.634,2.268a8.956,8.956,0,0,0-3.332,8.4" transform="translate(-256.209 -160.004)" fill="#4aa84f"/>
            <path id="Trazado_492" data-name="Trazado 492" d="M552.991,342.553s4.692,13.176,3.715,21.8a3.209,3.209,0,0,1-2.667,2.972,11.754,11.754,0,0,0,.877-4.68c-.065-2.615-1.14.922-1.531-.024a23.1,23.1,0,0,1-.394-6.89c.2-2.443-1.261-9.439-.556-11.092s.556-2.086.556-2.086" transform="translate(-263.737 -163.595)" fill="#3e9343"/>
            <path id="Trazado_493" data-name="Trazado 493" d="M507.221,410.094h0a2.577,2.577,0,0,1-2.1,2.971l-4.853.829a2.573,2.573,0,1,1-.874-5.072l4.853-.829a2.586,2.586,0,0,1,2.974,2.1" transform="translate(-237.477 -194.83)" fill="#fababa"/>
            <path id="Trazado_494" data-name="Trazado 494" d="M513.2,285.518c-1.437-2.308-3.629-2.712-5.663-1.384-1.994-.809-4.4.381-6.178,3.4-2.473,4.2-2.227,10.041-.683,13.707.836,1.986,1.819,3.369,6.57,2.54,3.221-.618,5.033-1.563,6.855-4.662,2.473-4.2,1.194-10.235-.9-13.6" transform="translate(-238.551 -135.335)" fill="#fababa"/>
            <path id="Trazado_495" data-name="Trazado 495" d="M512.205,300.725s-4.865,1.917-7.854-4.627c0,0-1.062-2.245-.608-3.2s8.462,7.824,8.462,7.824" transform="translate(-240.522 -139.848)" fill="#e5a7a7"/>
            <path id="Trazado_496" data-name="Trazado 496" d="M501.863,288.305c5.714,8.839,9.041,6.3,9.178,7.682,0,0,.965,3.667.967,3.675.579,2.743,3.363,1.628,6.038,2.516l.008,0s8.779-10.159-2.133-18.321c-7.384-5.523-17.6-.085-16.493,7.182Z" transform="translate(-238.476 -134.484)" fill="#0e2e82"/>
            <path id="Trazado_497" data-name="Trazado 497" d="M523.472,308.666a2.32,2.32,0,0,1-2.939.958,1.9,1.9,0,0,1-.761-2.744,2.321,2.321,0,0,1,2.939-.958,1.9,1.9,0,0,1,.761,2.744" transform="translate(-248.089 -146.003)" fill="#fababa"/>
            <path id="Trazado_498" data-name="Trazado 498" d="M522.727,308.856a.5.5,0,0,1-.036-.764c.323-.322.819-.627,1.188,0s-.033,1.45-.388,1.971a.1.1,0,0,1-.179-.073.779.779,0,0,0-.247-.917c-.138-.082-.249-.156-.339-.221" transform="translate(-249.548 -146.963)" fill="#e5a7a7"/>
            <path id="Trazado_499" data-name="Trazado 499" d="M504.235,316.023h0a3.347,3.347,0,0,1-1.525-3.016l3.05,1.193c0,1.336-.683,2.152-1.525,1.823" transform="translate(-240.082 -149.485)" fill="#fff"/>
            <path id="Trazado_500" data-name="Trazado 500" d="M169.658,573.69l-25.7-6.911c-3.019-.812-3.382-2.919-.807-4.683l19.7-13.5a14.065,14.065,0,0,1,10.17-1.732l25.7,6.911c3.019.812,3.382,2.919.807,4.683l-19.7,13.5a14.062,14.062,0,0,1-10.17,1.732" transform="translate(-67.546 -261.016)" fill="#3072ff"/>
            <path id="Trazado_501" data-name="Trazado 501" d="M186.306,560.923l-.727,9.812,21.663-7.4" transform="translate(-88.628 -267.883)" fill="none" stroke="#fff" stroke-linecap="round" stroke-linejoin="round" stroke-width="4.813"/>
            <path id="Trazado_502" data-name="Trazado 502" d="M294.4,612.483l-25.7-6.911c.768-1.275.4-3.382,2.98-5.146l19.7-13.5a14.062,14.062,0,0,1,10.17-1.732l25.7,6.911c3.019.812,3.382,2.919.807,4.684l-19.7,13.5c-2.575,1.764-7.151,2.543-13.957,2.195" transform="translate(-128.323 -279.321)" fill="#c2d8f0"/>
            <path id="Trazado_503" data-name="Trazado 503" d="M310.188,594.161l.488,5.23-7.021.835L250.8,607.637l-.41-4.812Z" transform="translate(-119.579 -283.757)" fill="#0e2e82"/>
            <path id="Trazado_504" data-name="Trazado 504" d="M279.5,613.389l-25.7-6.911c-3.019-.812-3.382-2.919-.807-4.684l19.7-13.5a14.065,14.065,0,0,1,10.17-1.732l25.7,6.911c3.019.812,3.382,2.919.807,4.684l-19.7,13.5a14.062,14.062,0,0,1-10.17,1.732" transform="translate(-120.004 -279.975)" fill="#0e2e82"/>
            <path id="Trazado_505" data-name="Trazado 505" d="M278.543,602.845l-25.7-6.911c-3.019-.812-3.382-2.919-.807-4.684l19.7-13.5a14.061,14.061,0,0,1,10.17-1.731l25.7,6.911c3.019.811,3.382,2.919.807,4.683l-19.7,13.5a14.061,14.061,0,0,1-10.17,1.732" transform="translate(-119.547 -274.94)" fill="#ed5353"/>
            <line id="Línea_8" data-name="Línea 8" y1="5.505" x2="23.26" transform="translate(149.05 310.248)" fill="none" stroke="#fff" stroke-linecap="round" stroke-linejoin="round" stroke-width="4.813"/>
            <line id="Línea_9" data-name="Línea 9" x1="5.784" y1="14.638" transform="translate(157.999 306.752)" fill="none" stroke="#fff" stroke-linecap="round" stroke-linejoin="round" stroke-width="4.813"/>
            <path id="Trazado_506" data-name="Trazado 506" d="M498.377,158.684,386.5,130.089c-3.568-.912-6.486,1.261-6.486,4.829v26.19a8.962,8.962,0,0,0,6.486,8.145l111.878,28.595c3.568.912,6.486-1.261,6.486-4.828v-26.19a8.962,8.962,0,0,0-6.486-8.145" transform="translate(-181.485 -62.028)" fill="#fffcfa"/>
            <path id="Trazado_507" data-name="Trazado 507" d="M402.1,156.028l1.947,4.47a1.71,1.71,0,0,0,.94.91l4.543,1.8a1.716,1.716,0,0,1,.384,2.977l-2.506,1.842a1.715,1.715,0,0,0-.677,1.658l.507,3.115a1.715,1.715,0,0,1-2.748,1.628l-3.091-2.414a1.712,1.712,0,0,0-1.52-.3l-3.761,1.058a1.716,1.716,0,0,1-2.153-1.95l.767-4.325a1.714,1.714,0,0,0-.356-1.378l-2.755-3.4a1.715,1.715,0,0,1,1.508-2.786l2.849.294a1.717,1.717,0,0,0,1.674-.873l1.378-2.476a1.715,1.715,0,0,1,3.071.149" transform="translate(-186.842 -74.023)" fill="#ff9b3d"/>
            <path id="Trazado_508" data-name="Trazado 508" d="M445.188,166.253l1.947,4.47a1.71,1.71,0,0,0,.94.91l4.543,1.8a1.716,1.716,0,0,1,.384,2.977l-2.506,1.842a1.715,1.715,0,0,0-.677,1.658l.507,3.116a1.715,1.715,0,0,1-2.748,1.627l-3.091-2.413a1.711,1.711,0,0,0-1.52-.3L439.206,183a1.715,1.715,0,0,1-2.153-1.95l.767-4.324a1.716,1.716,0,0,0-.356-1.379l-2.755-3.4a1.715,1.715,0,0,1,1.508-2.786l2.849.294a1.715,1.715,0,0,0,1.674-.873l1.378-2.475a1.715,1.715,0,0,1,3.071.148" transform="translate(-207.422 -78.907)" fill="#ff9b3d"/>
            <path id="Trazado_509" data-name="Trazado 509" d="M488.28,176.478l1.947,4.47a1.711,1.711,0,0,0,.94.91l4.543,1.8a1.715,1.715,0,0,1,.384,2.976l-2.506,1.842a1.715,1.715,0,0,0-.677,1.658l.507,3.116a1.715,1.715,0,0,1-2.748,1.627l-3.091-2.414a1.714,1.714,0,0,0-1.52-.3l-3.761,1.058a1.715,1.715,0,0,1-2.153-1.95l.767-4.325a1.716,1.716,0,0,0-.356-1.379l-2.755-3.4a1.715,1.715,0,0,1,1.508-2.786l2.849.294a1.716,1.716,0,0,0,1.674-.872l1.378-2.476a1.715,1.715,0,0,1,3.071.149" transform="translate(-228.001 -83.79)" fill="#ff9b3d"/>
            <path id="Trazado_510" data-name="Trazado 510" d="M531.371,186.7l1.947,4.47a1.711,1.711,0,0,0,.94.91l4.543,1.8a1.715,1.715,0,0,1,.384,2.976l-2.506,1.842A1.715,1.715,0,0,0,536,200.36l.507,3.116a1.715,1.715,0,0,1-2.748,1.628l-3.091-2.414a1.714,1.714,0,0,0-1.52-.3l-3.761,1.058a1.715,1.715,0,0,1-2.153-1.95l.767-4.325a1.715,1.715,0,0,0-.356-1.379l-2.755-3.4a1.715,1.715,0,0,1,1.508-2.786l2.849.294a1.715,1.715,0,0,0,1.674-.872l1.378-2.476a1.715,1.715,0,0,1,3.071.149" transform="translate(-248.581 -88.673)" fill="#ff9b3d"/>
            <path id="Trazado_511" data-name="Trazado 511" d="M574.462,196.928l1.947,4.47a1.711,1.711,0,0,0,.94.91l4.543,1.8a1.715,1.715,0,0,1,.384,2.976l-2.506,1.842a1.715,1.715,0,0,0-.677,1.658l.507,3.116a1.715,1.715,0,0,1-2.748,1.627l-3.091-2.414a1.714,1.714,0,0,0-1.52-.3l-3.761,1.058a1.715,1.715,0,0,1-2.153-1.95l.767-4.324a1.717,1.717,0,0,0-.356-1.379l-2.755-3.4a1.715,1.715,0,0,1,1.508-2.786l2.849.294a1.716,1.716,0,0,0,1.674-.872l1.378-2.476a1.715,1.715,0,0,1,3.071.149" transform="translate(-269.16 -93.556)" fill="#ff9b3d"/>
            <path id="Trazado_512" data-name="Trazado 512" d="M498.377,197.115,386.5,168.519a8.96,8.96,0,0,1-6.486-8.144V134.185c0-3.567,2.919-5.74,6.486-4.828l111.878,28.6a8.96,8.96,0,0,1,6.486,8.144v26.191C504.863,195.854,501.945,198.027,498.377,197.115Z" transform="translate(-181.485 -61.678)" fill="none" stroke="#0e2e82" stroke-linecap="round" stroke-linejoin="round" stroke-width="3.104"/>
            <path id="Trazado_513" data-name="Trazado 513" d="M388.957,214.847l-2.1,7.2,15.071-5.486" transform="translate(-184.754 -102.606)" fill="none" stroke="#0e2e82" stroke-linecap="round" stroke-linejoin="round" stroke-width="3.104"/>
          </g>
        </g>
      </g>
    </g>
  </g>
</svg>
