<svg xmlns="http://www.w3.org/2000/svg" width="374.864" height="413.34" viewBox="0 0 374.864 413.34">
  <g id="Grupo_246" data-name="Grupo 246" transform="translate(-1059.319 -294.164)">
    <g id="Grupo_237" data-name="Grupo 237" transform="translate(1059.319 294.164)" opacity="0.208">
      <g id="Grupo_224" data-name="Grupo 224" transform="translate(124.905)">
        <g id="Grupo_223" data-name="Grupo 223">
          <path id="Trazado_355" data-name="Trazado 355" d="M1370.461,483.778a62.358,62.358,0,1,1-62.359-62.332,62.366,62.366,0,0,1,62.359,62.332" transform="translate(-1245.746 -421.446)" fill="#4aa84f"/>
        </g>
      </g>
      <g id="Grupo_226" data-name="Grupo 226" transform="translate(124.905 144.306)">
        <g id="Grupo_225" data-name="Grupo 225">
          <path id="Trazado_356" data-name="Trazado 356" d="M1370.461,548.535a62.358,62.358,0,1,1-62.359-62.357,62.36,62.36,0,0,1,62.359,62.357" transform="translate(-1245.746 -486.179)" fill="#4aa84f"/>
        </g>
      </g>
      <g id="Grupo_228" data-name="Grupo 228" transform="translate(124.905 288.612)">
        <g id="Grupo_227" data-name="Grupo 227">
          <path id="Trazado_357" data-name="Trazado 357" d="M1370.461,613.3a62.358,62.358,0,1,1-62.359-62.383,62.357,62.357,0,0,1,62.359,62.383" transform="translate(-1245.746 -550.912)" fill="#4aa84f"/>
        </g>
      </g>
      <g id="Grupo_230" data-name="Grupo 230" transform="translate(0 72.282)">
        <g id="Grupo_229" data-name="Grupo 229">
          <path id="Trazado_358" data-name="Trazado 358" d="M1283.293,462.243a62.377,62.377,0,1,1-85.22,22.821,62.384,62.384,0,0,1,85.22-22.821" transform="translate(-1189.715 -453.87)" fill="#4aa84f"/>
        </g>
      </g>
      <g id="Grupo_232" data-name="Grupo 232" transform="translate(249.958 216.6)">
        <g id="Grupo_231" data-name="Grupo 231">
          <path id="Trazado_359" data-name="Trazado 359" d="M1395.409,526.969A62.372,62.372,0,1,1,1310.2,549.79a62.39,62.39,0,0,1,85.208-22.821" transform="translate(-1301.842 -518.609)" fill="#4aa84f"/>
        </g>
      </g>
      <g id="Grupo_234" data-name="Grupo 234" transform="translate(0.167 216.612)">
        <g id="Grupo_233" data-name="Grupo 233">
          <path id="Trazado_360" data-name="Trazado 360" d="M1220.965,526.962a62.379,62.379,0,1,1-22.821,85.191,62.378,62.378,0,0,1,22.821-85.191" transform="translate(-1189.79 -518.614)" fill="#4aa84f"/>
        </g>
      </g>
      <g id="Grupo_236" data-name="Grupo 236" transform="translate(250.129 72.283)">
        <g id="Grupo_235" data-name="Grupo 235">
          <path id="Trazado_361" data-name="Trazado 361" d="M1333.106,462.242a62.363,62.363,0,1,1-22.834,85.177,62.357,62.357,0,0,1,22.834-85.177" transform="translate(-1301.919 -453.871)" fill="#4aa84f"/>
        </g>
      </g>
    </g>
  </g>
</svg>
