<svg xmlns="http://www.w3.org/2000/svg" xmlns:xlink="http://www.w3.org/1999/xlink" width="374.864" height="426.633" viewBox="0 0 374.864 426.633">
  <defs>
    <clipPath id="clip-path">
      <rect id="Rect치ngulo_223" data-name="Rect치ngulo 223" width="363.735" height="351.779" fill="none"/>
    </clipPath>
    <clipPath id="clip-path-3">
      <rect id="Rect치ngulo_221" data-name="Rect치ngulo 221" width="27.802" height="29.42" fill="none"/>
    </clipPath>
  </defs>
  <g id="Grupo_376" data-name="Grupo 376" transform="translate(-1030.318 -292)">
    <g id="Grupo_246" data-name="Grupo 246" transform="translate(-29 -2.164)">
      <g id="Grupo_237" data-name="Grupo 237" transform="translate(1059.319 294.164)" opacity="0.208">
        <g id="Grupo_224" data-name="Grupo 224" transform="translate(124.905)">
          <g id="Grupo_223" data-name="Grupo 223">
            <path id="Trazado_355" data-name="Trazado 355" d="M1370.461,483.778a62.358,62.358,0,1,1-62.359-62.332,62.366,62.366,0,0,1,62.359,62.332" transform="translate(-1245.746 -421.446)" fill="#4aa84f"/>
          </g>
        </g>
        <g id="Grupo_226" data-name="Grupo 226" transform="translate(124.905 144.306)">
          <g id="Grupo_225" data-name="Grupo 225">
            <path id="Trazado_356" data-name="Trazado 356" d="M1370.461,548.535a62.358,62.358,0,1,1-62.359-62.357,62.36,62.36,0,0,1,62.359,62.357" transform="translate(-1245.746 -486.179)" fill="#4aa84f"/>
          </g>
        </g>
        <g id="Grupo_228" data-name="Grupo 228" transform="translate(124.905 288.612)">
          <g id="Grupo_227" data-name="Grupo 227">
            <path id="Trazado_357" data-name="Trazado 357" d="M1370.461,613.3a62.358,62.358,0,1,1-62.359-62.383,62.357,62.357,0,0,1,62.359,62.383" transform="translate(-1245.746 -550.912)" fill="#4aa84f"/>
          </g>
        </g>
        <g id="Grupo_230" data-name="Grupo 230" transform="translate(0 72.282)">
          <g id="Grupo_229" data-name="Grupo 229">
            <path id="Trazado_358" data-name="Trazado 358" d="M1283.293,462.243a62.377,62.377,0,1,1-85.22,22.821,62.384,62.384,0,0,1,85.22-22.821" transform="translate(-1189.715 -453.87)" fill="#4aa84f"/>
          </g>
        </g>
        <g id="Grupo_232" data-name="Grupo 232" transform="translate(249.958 216.6)">
          <g id="Grupo_231" data-name="Grupo 231">
            <path id="Trazado_359" data-name="Trazado 359" d="M1395.409,526.969A62.372,62.372,0,1,1,1310.2,549.79a62.39,62.39,0,0,1,85.208-22.821" transform="translate(-1301.842 -518.609)" fill="#4aa84f"/>
          </g>
        </g>
        <g id="Grupo_234" data-name="Grupo 234" transform="translate(0.167 216.612)">
          <g id="Grupo_233" data-name="Grupo 233">
            <path id="Trazado_360" data-name="Trazado 360" d="M1220.965,526.962a62.379,62.379,0,1,1-22.821,85.191,62.378,62.378,0,0,1,22.821-85.191" transform="translate(-1189.79 -518.614)" fill="#4aa84f"/>
          </g>
        </g>
        <g id="Grupo_236" data-name="Grupo 236" transform="translate(250.129 72.283)">
          <g id="Grupo_235" data-name="Grupo 235">
            <path id="Trazado_361" data-name="Trazado 361" d="M1333.106,462.242a62.363,62.363,0,1,1-22.834,85.177,62.357,62.357,0,0,1,22.834-85.177" transform="translate(-1301.919 -453.871)" fill="#4aa84f"/>
          </g>
        </g>
      </g>
    </g>
    <g id="Grupo_824" data-name="Grupo 824" transform="translate(1030.318 366.855)">
      <g id="Grupo_823" data-name="Grupo 823" clip-path="url(#clip-path)">
        <g id="Grupo_822" data-name="Grupo 822">
          <g id="Grupo_821" data-name="Grupo 821" clip-path="url(#clip-path)">
            <path id="Trazado_809" data-name="Trazado 809" d="M200.619,742.268c0,1.859-24.372,3.365-54.437,3.365s-54.437-1.506-54.437-3.365,24.372-3.365,54.437-3.365,54.437,1.506,54.437,3.365" transform="translate(-50.127 -403.72)" fill="#ede8ff"/>
            <path id="Trazado_810" data-name="Trazado 810" d="M591.1,743.456c0,1.859-24.372,3.365-54.437,3.365s-54.437-1.506-54.437-3.365,24.372-3.365,54.437-3.365S591.1,741.6,591.1,743.456" transform="translate(-263.475 -404.369)" fill="#ede8ff"/>
            <path id="Trazado_811" data-name="Trazado 811" d="M382.165,762.817c0,2.053-31.5,3.717-70.347,3.717s-70.348-1.664-70.348-3.717,31.5-3.717,70.348-3.717,70.347,1.664,70.347,3.717" transform="translate(-131.934 -414.755)" fill="#ede8ff"/>
            <path id="Trazado_814" data-name="Trazado 814" d="M162.36,520.988h21.32s-1.922,6.653-1.97,8.77,3.377,9.224,3.615,18.75-4.275,34.22-4.514,42.943c-.126,4.612,2.2,9.673,2.2,9.673a8.491,8.491,0,0,1-1.269,8.435c-3.252,4.083-7.206,9.866-12.536,9.866h-7.485s10.213-10.32,11.206-13.382.115-12.248-1.42-20.3-4.81-25.856-5.267-37.2-2.732-24.609-3.881-27.558" transform="translate(-88.361 -284.656)" fill="#fababa"/>
            <path id="Trazado_815" data-name="Trazado 815" d="M177.755,697.644s3.246,1.338,4.047,8.327c.336,2.93-.6,8.361-.789,13.754l-2.482-.022s-.426-8.953-1.412-11.553-5.024,11.553-6.6,11.553c-1.361,0-8.3.127-18.229.1a4.281,4.281,0,0,1,2.463-5.225c2.331-1.207,8.39-.137,10.8-1.234,4.652-2.116,10.554-12.452,12.2-15.7" transform="translate(-83.104 -381.177)" fill="#3d307f"/>
            <path id="Trazado_817" data-name="Trazado 817" d="M241.36,520.988h21.32s-1.922,6.653-1.97,8.77,3.377,9.224,3.615,18.75-4.275,34.22-4.514,42.943c-.126,4.612,2.2,9.673,2.2,9.673a8.491,8.491,0,0,1-1.269,8.435c-3.252,4.083-7.206,9.866-12.536,9.866h-7.485s10.213-10.32,11.206-13.382.115-12.248-1.42-20.3-4.81-25.856-5.267-37.2-2.732-24.609-3.881-27.558" transform="translate(-131.525 -284.656)" fill="#fababa"/>
            <path id="Trazado_818" data-name="Trazado 818" d="M256.755,697.644s3.246,1.338,4.047,8.327c.336,2.93-.6,8.361-.789,13.754l-2.482-.022s-.426-8.953-1.413-11.553-5.024,11.553-6.6,11.553c-1.361,0-8.3.127-18.229.1a4.281,4.281,0,0,1,2.463-5.225c2.331-1.207,8.39-.137,10.8-1.234,4.652-2.116,10.554-12.452,12.2-15.7" transform="translate(-126.268 -381.177)" fill="#3d307f"/>
            <path id="Trazado_820" data-name="Trazado 820" d="M170.507,333.984s-6.955,25.4-7.863,36.743,0,47.177,0,47.177,10.433,6.2,33.266,4.536,24.048-3.481,24.048-3.481,1.951-29.974,2.564-43.091c.551-11.781-3.034-26.984-6.237-38.2-.607-2.126-1.474-5.349-1.474-5.349Z" transform="translate(-88.645 -181.573)" fill="#2ab5df"/>
            <path id="Trazado_821" data-name="Trazado 821" d="M176.9,173.176s-7.561,1.881-13.458,3.393-12.4,2.571-15.121,9.072S137.966,203.6,137.966,203.6s8.866-.118,12.646,5.325c0,0-1.836,7.862,3.758,12.172,4.792,3.691,4.915,6.653,2.873,25.932,0,0,4.083,4.385,22.228,4.385s22.076-6.048,22.076-6.048-4.423-26.083-1.55-38.785c0,0,2.759,2.117,13.053-2.281,0,0-2.167-13.838-6.4-20.03s-8.467-8.158-13.457-8.611-16.293-2.485-16.293-2.485" transform="translate(-75.381 -94.619)" fill="#ffd5c9"/>
            <path id="Trazado_822" data-name="Trazado 822" d="M229.357,275.88a136.709,136.709,0,0,0-30.652,2.235q-1.944-24.273-3.887-48.546a136.713,136.713,0,0,1,30.653-2.234l3.887,48.545" transform="translate(-106.444 -124.153)" fill="#fff"/>
            <path id="Trazado_823" data-name="Trazado 823" d="M116.842,262.216c4.253,0,13.5-10.44,18.129-16.948,0,0-1.457-6.989-12.647-5.325,0,0-10.336,11.449-12.627,15.3s7.144,6.969,7.144,6.969" transform="translate(-59.741 -130.959)" fill="#e5a7a7"/>
            <path id="Trazado_824" data-name="Trazado 824" d="M248.457,264.584c-.273-7.107-4.918-24-4.918-24s-1.093,1.392-6.045,2.488c-5.143,1.139-6.918.34-6.918.34s1.21,5.713,2.407,9.727c.478,1.6,1.865,6.075,1.865,6.075-4.182,2.832-13.974,2.284-19.581,2.19a14.069,14.069,0,0,1-3.959-.633c-.791-.247-1.637-.53-2.22-.777-1.407-.593-2.327-3.962-3.884-4.713s-4.356-1.825-5.4-2.817-1.8,2,1.034,3.331a4.132,4.132,0,0,1,1.255.958,16.272,16.272,0,0,0-5.669-1.579c-2.35-.137-2.49,2.108-1.33,2.761a2,2,0,0,0-.213,3.475s-2.006,1.5.774,3.507c0,0-1.83.91.061,2.328.47.352,2.228,2.345,3.041,2.46,1.315.186,4.03-.3,6.259-.316,1.78-.013,2.41-.549,4.526.075a3.235,3.235,0,0,0,.952.146v0s22.847,4.572,27.232,3.966,11.009-1.89,10.736-9" transform="translate(-105.961 -131.451)" fill="#fababa"/>
            <path id="Trazado_825" data-name="Trazado 825" d="M223.791,100.625s-9.041-7.683-6.8-16.595c1.992-7.938-1.484-23.02-17.918-23.815-7.031-.34-14.44,3.893-15.763,12.361-1.057,6.769-.831,13.568-1.852,19.7a43.6,43.6,0,0,1-4.02,11.735s10.587,5.443,22.054,6.256c13.342.946,24.3-9.64,24.3-9.64" transform="translate(-96.945 -32.89)" fill="#3d307f"/>
            <path id="Trazado_826" data-name="Trazado 826" d="M216.99,139.807c2.353-3.812,4.995-12.8,4.526-22.9L195.6,115.45s-1.188,16.92,2.915,23.021a54.139,54.139,0,0,0,10.809,1.983,25.822,25.822,0,0,0,7.662-.647" transform="translate(-106.786 -63.079)" fill="#302663"/>
            <path id="Trazado_827" data-name="Trazado 827" d="M119.074,178.674l3.055-1.6,3.421,2s-2.495,21.547-3.175,29.41-.132,14.058-3,17.687-9.88,1.442-11.241-2.338-1.4-8.016,1.317-16.029c3.46-10.19,8.417-23.914,9.627-29.132" transform="translate(-58.583 -96.749)" fill="#fababa"/>
            <path id="Trazado_828" data-name="Trazado 828" d="M129.563,155.87s-.846-8.094-2.734-11.9-4.772-4.971-6.027-3.989.029,2.714.029,2.714a2.489,2.489,0,0,0-2.563-.586c-1.323.621.1,2.807.1,2.807a1.976,1.976,0,0,0-2.048-.683c-1.146.428-.351,2.679.1,3.075a1.239,1.239,0,0,0-1.2,1.291c-.077,1.294,1.652,2.837,2.4,3.39s-.586,1.71,1.562,3.493a21.119,21.119,0,0,0,4.267,2.743Z" transform="translate(-62.952 -76.302)" fill="#fababa"/>
            <path id="Trazado_829" data-name="Trazado 829" d="M147.549,103.279l-11.908-4.2c-2.22-.783-5.257,2.1-6.786,6.431s-.968,8.482,1.251,9.265l11.908,4.2c2.22.782,5.257-2.1,6.786-6.431s.968-8.483-1.251-9.265" transform="translate(-69.933 -54.065)" fill="#6e5ebd"/>
            <path id="Trazado_830" data-name="Trazado 830" d="M135.877,134.34l2.568.028,7.274,3.443-.468,1.314a.49.49,0,0,1-.556.316l-3.327-.652-5.689-2.552a.489.489,0,0,1-.261-.611Z" transform="translate(-73.974 -73.4)" fill="#3d307f"/>
            <path id="Trazado_831" data-name="Trazado 831" d="M111.712,150.978a.4.4,0,0,1,.451-.259l1.505.283a4.849,4.849,0,0,0,1.132-1.071c.737-1.064.325-1.434,1.1-2.47s1.227-.639,2-1.675.325-1.434,1.1-2.47,1.227-.639,2-1.675.325-1.434,1.1-2.471,1.227-.639,2-1.675l7.2,2.539-9.875,14.555h0l-.526.769a.4.4,0,0,1-.432.161l-3.819-1.006a.419.419,0,0,1-.055-.019l-4.985-2.13a.4.4,0,0,1-.22-.5Z" transform="translate(-60.852 -75.123)" fill="#3d307f"/>
            <path id="Trazado_832" data-name="Trazado 832" d="M68.243,75.692C65,84.886,66.189,93.685,70.9,95.345a5.845,5.845,0,0,0,4.517-.45h0c10.616-4.171,14.9-3.149,22.1-.61l2.594-7.358L102.7,79.57c-7.2-2.539-11.178-4.43-16.831-14.337a5.844,5.844,0,0,0-3.235-3.183C77.93,60.39,71.485,66.5,68.243,75.692" transform="translate(-36.288 -33.754)" fill="#6e5ebd"/>
            <path id="Trazado_833" data-name="Trazado 833" d="M72.1,95.556c4.342,1.531,10.285-4.1,13.274-12.581s1.894-16.594-2.448-18.124-10.285,4.1-13.274,12.581S67.759,94.025,72.1,95.556" transform="translate(-37.136 -35.296)" fill="#f7f5ff"/>
            <path id="Trazado_834" data-name="Trazado 834" d="M87.871,95.207,89,91.994c4.794,1.69,6.386,1.854,7.786,1.76a31.551,31.551,0,0,1-2.884,8.179c-1.032-.952-2.374-1.823-7.168-3.513Z" transform="translate(-47.392 -50.263)" fill="#6e5ebd"/>
            <path id="Trazado_835" data-name="Trazado 835" d="M84.867,94.451c-.626,1.775-.4,3.473.512,3.793s2.153-.858,2.778-2.633.4-3.473-.512-3.793-2.153.858-2.778,2.633" transform="translate(-46.177 -50.139)" fill="#3d307f"/>
            <path id="Trazado_836" data-name="Trazado 836" d="M134.2,157.793l3.669,2.267s1.025-4.539,1.308-6.084c.341-1.857.662-4.334.285-5.49a40.6,40.6,0,0,0-2-5.277c-.525-.808-5.837-1.838-6.916-1.9s-1.242,3.326,2.541,4.163a6.227,6.227,0,0,1,1.668,3.207s-3.418,2.454-2.8,4.951a10.032,10.032,0,0,0,2.245,4.165" transform="translate(-70.96 -77.207)" fill="#fababa"/>
            <path id="Trazado_837" data-name="Trazado 837" d="M217.871,144.488H205.352s1.247,10.32-1.021,14.743S191.4,176.8,205.239,179.3s15.31-12.922,14.4-16.1-3.087-11.341-1.77-18.712" transform="translate(-108.332 -78.945)" fill="#fababa"/>
            <path id="Trazado_838" data-name="Trazado 838" d="M226.4,144.488H213.879s.281,2.329.333,5.247a6.82,6.82,0,0,0,5.275,2.649,14.693,14.693,0,0,0,6.532-1.412,29.867,29.867,0,0,1,.378-6.485" transform="translate(-116.859 -78.945)" fill="#e5a7a7"/>
            <path id="Trazado_839" data-name="Trazado 839" d="M204.335,176.988c-2.216,4.322-12.441,16.967,0,19.877-8.959-2.351,0-19.877,0-19.877" transform="translate(-108.336 -96.702)" fill="#e5a7a7"/>
            <path id="Trazado_840" data-name="Trazado 840" d="M220.354,98.846c-.96-.31-2.122.483-2.944,1.871-.236-.027-.484-.06-.756-.1-3.868-.595-6.451-4.168-8.833-8.024a12.969,12.969,0,0,0-5.443-5.1,20.509,20.509,0,0,1-6.01,4.763,33.492,33.492,0,0,0-.469,9.842c1.291,12.692,5.985,16.311,9.792,16.267,3.3-.038,11.08-.6,13.989-11.994a6.263,6.263,0,0,0,1.643-2.7c.728-2.252.294-4.408-.968-4.816" transform="translate(-106.945 -47.801)" fill="#fababa"/>
            <path id="Trazado_841" data-name="Trazado 841" d="M247.523,126.8c0,.967-.561,1.75-1.252,1.75s-1.252-.783-1.252-1.75.561-1.75,1.252-1.75,1.252.784,1.252,1.75" transform="translate(-133.872 -68.326)" fill="#fff"/>
            <path id="Trazado_842" data-name="Trazado 842" d="M206.58,136.395c.414-.35,1.169-.059,1.745-.059s1.331-.291,1.745.059-.3,2.072-1.745,2.072-2.159-1.722-1.745-2.072" transform="translate(-112.807 -74.429)" fill="#fff"/>
            <path id="Trazado_843" data-name="Trazado 843" d="M514.957,731.8h-11.75a30.071,30.071,0,0,1-3,2.4c-2.224,1.58-5.358,3.6-6.725,5.418-1.9,2.538-.784,5.323-.02,5.323,2.695,0,15.753.036,20.318.006a2.332,2.332,0,0,0,2.229-2.236,35.563,35.563,0,0,0-1.055-10.906" transform="translate(-269.055 -399.841)" fill="#302663"/>
            <path id="Trazado_844" data-name="Trazado 844" d="M527.974,716.59H516.259l.546-12.631h13.116Z" transform="translate(-282.072 -384.627)" fill="#fababa"/>
            <path id="Trazado_845" data-name="Trazado 845" d="M638.343,704.659H626.627l-4.122-12.631h13.116Z" transform="translate(-340.123 -378.108)" fill="#fababa"/>
            <path id="Trazado_846" data-name="Trazado 846" d="M628.882,718.888s-.537,1.269-1.475,3.57-.492,8.79-.492,8.79,9.024.533,13.873.2L642,730.67s15.643,1.287,18.464.547,2.669-2.6,1.927-3.3-9.85-2.815-13.713-5.606a24.133,24.133,0,0,0-8.172-3.7Z" transform="translate(-342.474 -392.636)" fill="#302663"/>
            <path id="Trazado_847" data-name="Trazado 847" d="M488.1,389.183s22.588,6.512,37.443,6.715,18.021-2.117,18.021-2.117,7.823,43.832,12.3,68.251,11.4,69.39,11.4,69.39-17.093,11.192-33.169,3.663c0,0-9.534-50.466-11.38-67.763,0,0-4.289,27.471-5.713,40.495s-1.831,32-1.831,32-20.653,10.507-36.832-5.291c0,0,4.9-57.545,4.672-80.736s-4.1-45.242,5.1-64.609" transform="translate(-261.349 -212.641)" fill="#40516f"/>
            <path id="Trazado_848" data-name="Trazado 848" d="M580.98,450.757c0,11.964-4.824,50.209-4.824,50.209,1.846,17.3,11.38,67.763,11.38,67.763,8.329-53.959-6.556-117.971-6.556-117.971" transform="translate(-314.799 -246.283)" fill="#344359"/>
            <path id="Trazado_849" data-name="Trazado 849" d="M626.207,346.78s-8.736,2.078-11.911,9.991c0,0-3.366-24.652-3.171-32.011s-.011-10.42-.011-10.42Z" transform="translate(-333.899 -171.748)" fill="#6f7e7e"/>
            <path id="Trazado_850" data-name="Trazado 850" d="M500.091,173.159c-6.955.076-9.618.57-12.945,2.083s-17.449,9.626-19.49,10.836-12.776,32.963-14.742,53.754,13,52.091,13,52.091,9.526.151,16.179-7.106c0,0-9.98-26.915-12.4-35.232s6.338-24.5,6.338-24.5l-3.411,51.273s36.4,9.013,57.259,1.1c0,0-1.819-12.15-3.028-19.861s-1.927-33.168-2.873-45.32c-2.073-26.617-15.26-39.12-15.26-39.12s-5.754-.031-8.631,0" transform="translate(-247.365 -94.603)" fill="#4aa84f"/>
            <path id="Trazado_851" data-name="Trazado 851" d="M671.936,131s-4.867-8.584-5.687-13.669,1.207-8.268,3.138-8.183,1.883,2.7,1.883,2.7.373-2.064,2.117-2.384,1.879,2.841,1.879,2.841a2.4,2.4,0,0,1,1.54-2.116c1.433-.385,2.234,2.4,2.071,3.1a1.5,1.5,0,0,1,2.092.43c.988,1.223.368,3.963.025,5.033s1.783,1.275.92,4.548-1.527,5.519-1.527,5.519Z" transform="translate(-363.921 -59.632)" fill="#fababa"/>
            <path id="Trazado_852" data-name="Trazado 852" d="M674.254,150.336a97.123,97.123,0,0,1-1.112,10.3l10.309.729s-.059-10.684.8-13.733-2.407-4.054-2.407-4.054Z" transform="translate(-367.79 -78.447)" fill="#fababa"/>
            <path id="Trazado_853" data-name="Trazado 853" d="M661.628,112.818c-1.855.071-3.322,2.4-3.322,5.207s1.467,5.136,3.322,5.207l24.119.924V111.894Z" transform="translate(-359.683 -61.136)" fill="#3d307f"/>
            <path id="Trazado_854" data-name="Trazado 854" d="M603.9,119.08c-.933.036-1.67,1.207-1.67,2.617s.737,2.582,1.67,2.617l12.123.464v-6.162Z" transform="translate(-329.043 -64.809)" fill="#3d307f"/>
            <path id="Trazado_855" data-name="Trazado 855" d="M625.7,116.651c-1.29.049-2.311,1.67-2.311,3.621s1.021,3.572,2.311,3.621l16.774.642v-8.527Z" transform="translate(-340.608 -63.385)" fill="#3d307f"/>
            <path id="Trazado_856" data-name="Trazado 856" d="M710.269,107.884c-2.582.1-4.624,3.343-4.624,7.248s2.042,7.148,4.624,7.247l33.569,1.286V106.6Z" transform="translate(-385.548 -58.243)" fill="#2ab5df"/>
            <path id="Trazado_857" data-name="Trazado 857" d="M788.728,115.131c0,4.712-2.438,8.533-5.445,8.533s-5.444-3.82-5.444-8.533,2.438-8.533,5.444-8.533,5.445,3.82,5.445,8.533" transform="translate(-424.994 -58.243)" fill="#302663"/>
            <path id="Trazado_858" data-name="Trazado 858" d="M784.025,117.746c1.917,0,3.491,2.3,3.667,5.228a7.325,7.325,0,0,0,1.4-4.52c0-3.189-1.649-5.774-3.684-5.774s-3.684,2.585-3.684,5.774c0,.184.007.366.018.545a2.98,2.98,0,0,1,2.288-1.253" transform="translate(-427.114 -61.566)" fill="#6e5ebd"/>
            <path id="Trazado_859" data-name="Trazado 859" d="M671.678,131.442l-5.595,1.9a5.392,5.392,0,0,0-1.605-3.458c-1.472-1.208-4.107-2.508-4.549-3.914a49.131,49.131,0,0,1-1.741-6.619c-.052-1.167,4.465-5.927,5.484-6.75s3.57,2.406.426,5.9a7.553,7.553,0,0,0,.613,4.34s5.1.014,6.248,2.915a12.168,12.168,0,0,1,.719,5.692" transform="translate(-359.618 -61.45)" fill="#fababa"/>
            <path id="Trazado_860" data-name="Trazado 860" d="M673.058,166.03l.435-4.76s9.022-1.6,13.812,1.14L687,167.2a52.294,52.294,0,0,0-13.937-1.171" transform="translate(-367.744 -87.861)" fill="#ffd5c9"/>
            <path id="Trazado_861" data-name="Trazado 861" d="M617.1,177.709a75.785,75.785,0,0,1,10.333,11.754c4.876,6.918,8.619,9.639,8.619,9.639s4.99-23.7,4.99-30.053c0,0,12.7-2.495,17.8,2.949,0,0-2.722,26.31-3.856,35.836s-7.258,18.6-14.289,18.6-13.552-8.631-13.552-8.631-10.178-10.788-10.049-40.094" transform="translate(-337.168 -92.054)" fill="#829494"/>
            <path id="Trazado_862" data-name="Trazado 862" d="M650.038,276.094c-6.539,0-12.692-5.694-14.773-7.832a17.6,17.6,0,0,0,1.809,2.49s6.521,8.631,13.552,8.631c5.88,0,11.123-6.346,13.346-13.994-2.99,6.1-8.2,10.706-13.935,10.706" transform="translate(-347.094 -145.002)" fill="#6f7e7e"/>
            <path id="Trazado_863" data-name="Trazado 863" d="M576.156,173.176s14.5,3.955,18.284,6.849,3.024,16.5,5.141,24.517,5.595,22.832,19.355,36.138S640.71,261.4,640.71,261.4s-4.083,13-13.911,16.633-15.272,0-15.272,0-16.7-31.452-19.465-38.181-5.928-46.722-7.742-50.481-8.163-16.192-8.163-16.192" transform="translate(-314.799 -94.619)" fill="#829494"/>
            <path id="Trazado_864" data-name="Trazado 864" d="M491.039,175.7s-7.8,2.884-11.536,4.668c-4.772,2.281-9.375,3.78-11.946,7.106s-7.527,39.465-8.148,53.679-3.95,53.376-3.95,53.376,14.819,6.5,27.672,0,14.364-8.619,16.028-10.282,6.388-38.86,7.277-44.607-15.745-38.255-17.106-44.152,1.707-19.789,1.707-19.789" transform="translate(-248.853 -95.997)" fill="#829494"/>
            <path id="Trazado_865" data-name="Trazado 865" d="M510.366,322.5c-3.631-7.375-11.808-23.969-13.216-26.711-1.821-3.546,5.285-25.95,6.12-38.754a15.978,15.978,0,0,0-.2-3.678,16.8,16.8,0,0,1-.053,2.747c-1.4,13.2-9.488,35.945-7.824,39.725S508.8,328.039,508.8,328.039a18.92,18.92,0,0,1-6.307,6.656,17.715,17.715,0,0,0,6.828-4.7,6.741,6.741,0,0,0,1.045-7.494" transform="translate(-270.44 -138.43)" fill="#6f7e7e"/>
            <path id="Trazado_866" data-name="Trazado 866" d="M507.106,424.238s1.474,1.4,3.856,6.539c0,0-3.062,5.822-8.619,8.09,0,0-5.33-7.031-6.464-9.753Z" transform="translate(-270.937 -231.794)" fill="#fababa"/>
            <path id="Trazado_867" data-name="Trazado 867" d="M506.273,419.6l2.373,4.153s-6.99,6.92-12.778,7.671l-2.5-4.1a60.375,60.375,0,0,0,12.906-7.725" transform="translate(-269.565 -229.262)" fill="#ffd5c9"/>
            <path id="Trazado_868" data-name="Trazado 868" d="M462.277,201.655c-3.024,3.78-8.471,19.2-12.1,33.719s-4.383,17.843-4.383,27.369,11.341,37.5,14.062,45.664c0,0,14.362,4.536,22.075-8.619,0,0-11.944-28.427-13.607-32.207s6.425-26.527,7.824-39.725-13.872-26.2-13.872-26.2" transform="translate(-243.573 -110.18)" fill="#829494"/>
            <path id="Trazado_869" data-name="Trazado 869" d="M557.184,153.96l-15.617-10.134s-.2,8.364-3.185,13.626a4.779,4.779,0,0,0-.546,3.329c.667,3.215,2.814,9.253,9.611,10.8,5.033,1.145,8-.715,7.885-7.359s1.852-10.261,1.852-10.261" transform="translate(-293.809 -78.583)" fill="#fababa"/>
            <path id="Trazado_870" data-name="Trazado 870" d="M550.394,146.564c.4,2,.9,4.14,1.517,6.358,0,0,3.25,7.411,10.593,8.256a18.136,18.136,0,0,1,1.594-5.722Z" transform="translate(-300.723 -80.079)" fill="#e5a7a7"/>
            <path id="Trazado_871" data-name="Trazado 871" d="M544.049,119.314s3.287,7.5,10.718,8.275c8.366.872,10.388-8.453,11.608-16.064s2.733-16.552-9.206-19.922c-4.69-1.324-15.334,2.284-15.872,9.106-.24,3.049.425,10.275,2.752,18.6" transform="translate(-295.727 -49.902)" fill="#fababa"/>
            <path id="Trazado_872" data-name="Trazado 872" d="M537.58,101.6c-5.72-7.539-4.506-21.423,5.893-24.116,3.981-1.031,7.061,2.289,10.778,1.318,3.095-.808,5.561-2.27,8.943-1.791a8.123,8.123,0,0,1,5.308,3,8.962,8.962,0,0,1,1.326,7.115,10.662,10.662,0,0,1-3.252,5.773,5.2,5.2,0,0,0-.274-4.712,2.96,2.96,0,0,1-1.845,3.7c-2.681.812-3.577-2.328-5.1-3.751-1.811-1.692-3.559-1.811-5.97-2.03-5.536-.5-10.934,2.541-11.414,8.536-.211,2.621,1.067,4.853.6,7.282-.635,3.294-3.753,1.3-4.99-.328" transform="translate(-291.867 -42.024)" fill="#302663"/>
            <path id="Trazado_873" data-name="Trazado 873" d="M541.069,129.38s-.969-4.009-3.342-3.551-2.323,7.542,4.784,8.447Z" transform="translate(-293.034 -68.73)" fill="#fababa"/>
            <path id="Trazado_874" data-name="Trazado 874" d="M575.842,152.577a8.3,8.3,0,0,1-3.6-.869.453.453,0,0,1,.429-.8c.031.017,3.2,1.67,5.9.014a.454.454,0,1,1,.475.773,6.028,6.028,0,0,1-3.2.882" transform="translate(-312.53 -82.424)" fill="#e5a7a7"/>
            <path id="Trazado_875" data-name="Trazado 875" d="M579.714,158.47c0,.267-.635.482-1.418.482s-1.418-.215-1.418-.482.635-.481,1.418-.481,1.418.215,1.418.481" transform="translate(-315.194 -86.322)" fill="#e5a7a7"/>
            <path id="Trazado_876" data-name="Trazado 876" d="M297.417,731.221c-.681-1.971-1.7-3.907-2.791-6.79l-10.426.544a25.635,25.635,0,0,1-5.137,8.847c-.686.8-2.568,2.79-4.281,4.873-1.408,1.712-2.34,2.96-2.061,5.245.057.469.143,2.3.89,2.566,2.587.939,8.045.949,10.8.745,4.363-.323,7.582-1.7,13.654-6.229l.266-4.552a14.229,14.229,0,0,0-.917-5.249" transform="translate(-148.982 -395.813)" fill="#3d307f"/>
            <path id="Trazado_877" data-name="Trazado 877" d="M464.963,731.221c.681-1.971,1.7-3.907,2.791-6.79l10.425.544a25.632,25.632,0,0,0,5.138,8.847c.686.8,2.568,2.79,4.281,4.873,1.408,1.712,2.34,2.96,2.061,5.245-.058.469-.143,2.3-.89,2.566-2.587.939-8.045.949-10.8.745-4.363-.323-7.582-1.7-13.654-6.229l-.267-4.552a14.236,14.236,0,0,1,.918-5.249" transform="translate(-253.539 -395.813)" fill="#3d307f"/>
            <path id="Trazado_878" data-name="Trazado 878" d="M299.481,387.359s41.6,8.835,66.4-1.371c0,0,5.167,34.7,7.647,54.888s12.194,95.034,14.055,105.24c0,0-6.321,8.846-26.37,2.041,0,0-17.155-77.116-20.255-91.632s-6.7-33.114-6.7-33.114-5.787,31.527-9.3,49.445-12.4,72.131-12.4,72.131a54.693,54.693,0,0,1-9.2,3.851c-3.618.907-14.257-.454-17.1-6.578,0,0,3.563-49.218,7.7-86.869s5.525-68.033,5.525-68.033" transform="translate(-156.406 -210.895)" fill="#015694"/>
            <path id="Trazado_879" data-name="Trazado 879" d="M345.121,282.7s19.626,5.2,37.953,0l-3.041-96.25s-14.8-.462-31.128-.462Z" transform="translate(-188.566 -101.619)" fill="#fff"/>
            <path id="Trazado_880" data-name="Trazado 880" d="M386.09,215.069a4.655,4.655,0,0,1-6.36,0c-1.962-1.9-2.5-6.866,3.18-6.866s5.142,4.97,3.18,6.866" transform="translate(-206.73 -113.757)" fill="#2ab5df"/>
            <path id="Trazado_881" data-name="Trazado 881" d="M386.665,288.7l-8.41,5.519-8.411-5.973,3.069-47.432a162.621,162.621,0,0,1,2.972-22.153l.929-4.532H379.7l.931,4.554a162.662,162.662,0,0,1,2.957,22.121Z" transform="translate(-202.074 -116.996)" fill="#2ab5df"/>
            <path id="Trazado_882" data-name="Trazado 882" d="M387.209,204.834c-7.75,3.09-13.459,3.118-21.279,0v-2.726c7.82,3.118,13.53,3.09,21.279,0v2.726" transform="translate(-199.936 -110.427)" fill="#2ab5df"/>
            <g id="Grupo_820" data-name="Grupo 820" transform="translate(161.945 91.91)" style="mix-blend-mode: multiply;isolation: isolate">
              <g id="Grupo_819" data-name="Grupo 819">
                <g id="Grupo_818" data-name="Grupo 818" clip-path="url(#clip-path-3)">
                  <path id="Trazado_883" data-name="Trazado 883" d="M383.891,214.633l-5.737-9.484-6.462-.379-6.75.622-5.512,8.377,1.43,18.263L357,210.325l6.918-7.315,7.771,1.474,7.957-1.871,5.156,5.64Z" transform="translate(-357.004 -202.613)" fill="#dddaed"/>
                </g>
              </g>
            </g>
            <path id="Trazado_884" data-name="Trazado 884" d="M358.041,178.274l-.352,3.386,12.069,9.811-7.616-.434-6.445,6.7-2.235-15.965Z" transform="translate(-193.124 -97.405)" fill="#fff"/>
            <path id="Trazado_885" data-name="Trazado 885" d="M398.443,177.146l.675,5.688-9.732,8.02,6.764-.776,5.9,7.409,2.343-16.33Z" transform="translate(-212.751 -96.789)" fill="#fff"/>
            <path id="Trazado_886" data-name="Trazado 886" d="M363.3,150.225l20.335-1.043s-.4,12.237,1.079,18.266l-9.864,8.128-12.069-9.811s1.267-10.121.519-15.539" transform="translate(-198.214 -81.51)" fill="#fababa"/>
            <path id="Trazado_887" data-name="Trazado 887" d="M384.258,149.182l-20.335,1.043a40.008,40.008,0,0,1,.2,6.327c2.251,3.614,6,6.726,10.124,7.116a15.632,15.632,0,0,0,10.2-2.967c-.376-5.623-.187-11.518-.187-11.518" transform="translate(-198.839 -81.51)" fill="#e5a7a7"/>
            <path id="Trazado_888" data-name="Trazado 888" d="M356.4,125.788s-.6-2.274-4.161-3.565-1.431,7.5,2.024,8.715Z" transform="translate(-191.449 -66.709)" fill="#ff96a7"/>
            <path id="Trazado_889" data-name="Trazado 889" d="M384.173,92.821H358.39v23.852c0,5.062,6.082,12.183,12.472,12.183s13.31-5.62,13.31-11.8Z" transform="translate(-195.816 -50.715)" fill="#fababa"/>
            <path id="Trazado_890" data-name="Trazado 890" d="M355.35,97.67c1.8,0,2.746-1.931,2.746-8.194s1.973-6.607,3.26-6.607,3.6,3.346,8.923,3.346,6.049-2.917,8.88-2.917c1.931,0,1.931,5.191,1.931,12.226,0,0,3.56-.429,3.56-7.379V83.47a8.889,8.889,0,0,0,2.746-6.349c0-3.99-9.7-4.633-14.929-4.633s-19.09,1.415-19.09,11.454.129,13.728,1.973,13.728" transform="translate(-193.077 -39.606)" fill="#302663"/>
            <path id="Trazado_891" data-name="Trazado 891" d="M408.454,125.788s.6-2.274,4.161-3.565,1.431,7.5-2.024,8.715Z" transform="translate(-223.17 -66.709)" fill="#ff96a7"/>
            <path id="Trazado_892" data-name="Trazado 892" d="M385.523,155.31c-.329-.677-2.448-.87-4.784-.87s-4.455.193-4.785.87,1.783,1.683,4.785,1.683,5.114-1.006,4.784-1.683" transform="translate(-205.394 -84.383)" fill="#fff"/>
            <path id="Trazado_893" data-name="Trazado 893" d="M297.186,185.988s4.362,31.351,6.653,44c2.046,11.3,3.78,23.891,0,45.967-4.175,24.381-14.97,31.754-23.891,29.637S268.457,293.8,268.457,293.8s10.208-42.338,12.135-51.562-.909-19.132-.909-19.132l-14,9.153-15.222-12.7s17.994-23.433,21.471-25.476,25.252-8.092,25.252-8.092" transform="translate(-136.847 -101.62)" fill="#034f86"/>
            <path id="Trazado_894" data-name="Trazado 894" d="M331.913,211.975l4.444-2.178-4.077-3.172,3.832-17.577-.992.286-3.849,17.656,3.382,2.631-4,1.961.237.419c.149.263,14.9,26.5,18.611,51.143q.159-2.014.249-3.907c-4.215-21.917-16.024-43.965-17.837-47.262" transform="translate(-180.661 -103.292)" fill="#033e69"/>
            <path id="Trazado_895" data-name="Trazado 895" d="M411.758,185.988s-4.362,31.351-6.653,44c-2.046,11.3-3.78,23.891,0,45.967,4.175,24.381,14.97,31.754,23.891,29.637S440.487,293.8,440.487,293.8s-10.208-42.338-12.135-51.562.909-19.132.909-19.132l14.4,9.153,14.815-12.7s-17.994-23.433-21.471-25.476-25.252-8.092-25.252-8.092" transform="translate(-220.121 -101.62)" fill="#034f86"/>
            <path id="Trazado_896" data-name="Trazado 896" d="M422.259,211.579l-4-1.961,3.382-2.631-3.849-17.658-.992-.287,3.832,17.579-4.078,3.172L421,211.972c-1.812,3.3-13.612,25.327-17.832,47.235q.09,1.894.248,3.908c3.712-24.634,18.457-50.853,18.607-51.116Z" transform="translate(-220.281 -103.289)" fill="#033e69"/>
            <path id="Trazado_897" data-name="Trazado 897" d="M414.943,102.9c2.664-1.185,5.852-1.817,8.1-.3a36.758,36.758,0,0,1,5.957,4.853c2.495,2.722,3.729,8.819,4.353,11.841a24.591,24.591,0,0,0,3.7,8.58,9.1,9.1,0,0,1-2.383,4.179c-2.041,2.193-5.871,2.975-5.871,2.975s-2.481-4.28-3.275-5.443-5.588-2.152-6.949-2.982-1.247-2.8,1.021-3.366c4.664-1.166,5.217-7.934,3.09-11.473a9.167,9.167,0,0,0-9.048-4.167c-.675.1-2.467.968-2.9.318-.782-1.163.184-2.64,1.341-3.429a18.507,18.507,0,0,1,2.86-1.59" transform="translate(-224.265 -55.573)" fill="#fababa"/>
            <path id="Trazado_898" data-name="Trazado 898" d="M446.09,172.624c8.321-3.575,11.383-8.14,11.383-8.14s12.7,17.92,19.205,29.353,6.992,15.1,6.955,19.716c-.055,7-10.168,11.379-17.036,6.956-8.063-5.193-10.635-10.585-12.582-17.5-1.608-5.707-7.17-22.222-9.061-27.807a2.08,2.08,0,0,1,1.135-2.58" transform="translate(-243.052 -89.87)" fill="#034f86"/>
            <path id="Trazado_899" data-name="Trazado 899" d="M455.811,159.4l2.009,2.851c-.562,5.343-10.666,9.627-10.666,9.627l-2.382-4.65c3.969-1.021,11.038-7.829,11.038-7.829" transform="translate(-243.014 -87.094)" fill="#fff"/>
            <path id="Trazado_900" data-name="Trazado 900" d="M471.035,244.38c-3.379-2.561-11.657-11.067-18.3-36.01,0,0,2.123,18.039,3.768,26.964l14.4,9.152Z" transform="translate(-247.365 -113.849)" fill="#033e69"/>
            <path id="Trazado_901" data-name="Trazado 901" d="M329.831,102.9c-2.664-1.185-5.852-1.817-8.1-.3a36.758,36.758,0,0,0-5.957,4.853c-2.495,2.722-3.729,8.819-4.352,11.841a24.585,24.585,0,0,1-3.7,8.58,9.1,9.1,0,0,0,2.383,4.179c2.041,2.193,5.871,2.975,5.871,2.975s2.481-4.28,3.275-5.443,5.588-2.152,6.949-2.982,1.247-2.8-1.021-3.366c-4.664-1.166-5.217-7.934-3.09-11.473a9.167,9.167,0,0,1,9.047-4.167c.675.1,2.467.968,2.9.318.782-1.163-.184-2.64-1.341-3.429a18.508,18.508,0,0,0-2.86-1.59" transform="translate(-168.127 -55.573)" fill="#fababa"/>
            <path id="Trazado_902" data-name="Trazado 902" d="M284,172.624c-8.321-3.575-11.383-8.14-11.383-8.14s-12.7,17.92-19.205,29.353-6.992,15.1-6.956,19.716c.055,7,10.169,11.379,17.037,6.956,8.063-5.193,10.634-10.585,12.582-17.5,1.608-5.707,7.17-22.222,9.061-27.807a2.08,2.08,0,0,0-1.135-2.58" transform="translate(-134.659 -89.87)" fill="#034f86"/>
            <path id="Trazado_903" data-name="Trazado 903" d="M305.293,159.4l-2.009,2.851c.562,5.343,10.666,9.627,10.666,9.627l2.382-4.65c-3.969-1.021-11.038-7.829-11.038-7.829" transform="translate(-165.708 -87.094)" fill="#fff"/>
            <path id="Trazado_904" data-name="Trazado 904" d="M295.788,226.44c-3.985,9.489-7.561,13.793-11.769,17.5l14-9.153c2.154-4.39,4.709-27.417,4.709-27.419-2.307,6.915-5.43,15.483-6.939,19.074" transform="translate(-155.182 -113.3)" fill="#033e69"/>
            <path id="Trazado_905" data-name="Trazado 905" d="M363.329,124.926a7.389,7.389,0,1,1-7.39-7.39,7.389,7.389,0,0,1,7.39,7.39" transform="translate(-190.44 -64.219)" fill="#302663"/>
            <path id="Trazado_906" data-name="Trazado 906" d="M411.329,124.926a7.389,7.389,0,1,1-7.39-7.39,7.389,7.389,0,0,1,7.39,7.39" transform="translate(-216.666 -64.219)" fill="#302663"/>
            <path id="Trazado_907" data-name="Trazado 907" d="M385.911,130.762c-7.668-9.121-14.192-8.9-21.7,0,0-5.078,0-9.432,0-14.51,6.456-2.3,15.229-2.67,21.7,0Z" transform="translate(-198.999 -62.497)" fill="#302663"/>
            <path id="Trazado_908" data-name="Trazado 908" d="M352.894,122.365a9.515,9.515,0,1,1-9.515-9.515,9.515,9.515,0,0,1,9.515,9.515" transform="translate(-182.416 -61.659)" fill="#302663"/>
            <path id="Trazado_909" data-name="Trazado 909" d="M339.925,125.677a6.766,6.766,0,1,1,13.531,0Z" transform="translate(-185.727 -64.97)" fill="#6e5ebd"/>
            <path id="Trazado_910" data-name="Trazado 910" d="M345.489,123.407c-.748.748-1.587,1.12-1.875.832s.085-1.127.832-1.875,1.587-1.12,1.875-.832-.085,1.127-.832,1.875" transform="translate(-187.69 -66.349)" fill="#f7f5ff"/>
            <path id="Trazado_911" data-name="Trazado 911" d="M420.894,122.365a9.515,9.515,0,1,1-9.515-9.515,9.515,9.515,0,0,1,9.515,9.515" transform="translate(-219.569 -61.659)" fill="#302663"/>
            <path id="Trazado_912" data-name="Trazado 912" d="M407.925,125.677a6.766,6.766,0,1,1,13.531,0Z" transform="translate(-222.881 -64.97)" fill="#6e5ebd"/>
            <path id="Trazado_913" data-name="Trazado 913" d="M413.489,123.407c-.748.748-1.587,1.12-1.875.832s.085-1.127.832-1.875,1.587-1.12,1.875-.832-.085,1.127-.832,1.875" transform="translate(-224.843 -66.349)" fill="#f7f5ff"/>
            <path id="Trazado_914" data-name="Trazado 914" d="M387.824,123.356a1.493,1.493,0,1,1-1.493-1.493,1.493,1.493,0,0,1,1.493,1.493" transform="translate(-210.267 -66.583)" fill="#3d307f"/>
          </g>
        </g>
      </g>
    </g>
  </g>
</svg>
