<svg xmlns="http://www.w3.org/2000/svg" xmlns:xlink="http://www.w3.org/1999/xlink" width="1920" height="1080" viewBox="0 0 1920 1080">
  <defs>
    <clipPath id="clip-path">
      <rect id="Rectángulo_1294" data-name="Rectángulo 1294" width="1920" height="1080" transform="translate(-21949 -4116)" fill="#fff" stroke="#707070" stroke-width="1"/>
    </clipPath>
  </defs>
  <g id="Enmascarar_grupo_1" data-name="Enmascarar grupo 1" transform="translate(21949 4116)" opacity="0.03" clip-path="url(#clip-path)">
    <g id="Grupo_1548" data-name="Grupo 1548" transform="translate(0 0.319)">
      <g id="Grupo_1532" data-name="Grupo 1532" transform="translate(0 -637)">
        <g id="Grupo_1528" data-name="Grupo 1528" transform="translate(-22279 -3565.892)">
          <path id="Trazado_1245" data-name="Trazado 1245" d="M1156,277.847a48.958,48.958,0,1,1-48.947-48.955A48.953,48.953,0,0,1,1156,277.847" fill="#00a611"/>
          <path id="Trazado_1246" data-name="Trazado 1246" d="M1156,391.162a48.958,48.958,0,1,1-48.947-48.955A48.946,48.946,0,0,1,1156,391.162" fill="#00a611"/>
          <path id="Trazado_1247" data-name="Trazado 1247" d="M1156,504.477a48.958,48.958,0,1,1-48.947-48.952A48.96,48.96,0,0,1,1156,504.477" fill="#00a611"/>
          <path id="Trazado_1248" data-name="Trazado 1248" d="M1033.475,292.216a48.972,48.972,0,1,1-66.9,17.939,49.016,49.016,0,0,1,66.9-17.939" fill="#00a611"/>
          <path id="Trazado_1249" data-name="Trazado 1249" d="M1229.74,405.538a48.97,48.97,0,1,1-66.907,17.916,48.989,48.989,0,0,1,66.907-17.916" fill="#00a611"/>
          <path id="Trazado_1250" data-name="Trazado 1250" d="M984.624,405.538a48.974,48.974,0,1,1-17.933,66.9,48.975,48.975,0,0,1,17.933-66.9" fill="#00a611"/>
          <path id="Trazado_1251" data-name="Trazado 1251" d="M1180.884,292.229a48.966,48.966,0,1,1-17.916,66.883,48.966,48.966,0,0,1,17.916-66.883" fill="#00a611"/>
        </g>
        <g id="Grupo_1531" data-name="Grupo 1531" transform="translate(0.355)">
          <g id="Grupo_1529" data-name="Grupo 1529" transform="translate(-22055.867 -3439.092)">
            <path id="Trazado_1252" data-name="Trazado 1252" d="M1659.922,151.047a48.958,48.958,0,1,1-48.947-48.955,48.952,48.952,0,0,1,48.947,48.955" fill="#00a611"/>
            <path id="Trazado_1253" data-name="Trazado 1253" d="M1659.922,264.361a48.958,48.958,0,1,1-48.947-48.954,48.946,48.946,0,0,1,48.947,48.954" fill="#00a611"/>
            <path id="Trazado_1254" data-name="Trazado 1254" d="M1659.922,377.676a48.958,48.958,0,1,1-48.947-48.952,48.96,48.96,0,0,1,48.947,48.952" fill="#00a611"/>
            <path id="Trazado_1255" data-name="Trazado 1255" d="M1537.4,165.415a48.972,48.972,0,1,1-66.9,17.939,49.019,49.019,0,0,1,66.9-17.939" fill="#00a611"/>
            <path id="Trazado_1256" data-name="Trazado 1256" d="M1733.663,278.738a48.97,48.97,0,1,1-66.907,17.915,48.988,48.988,0,0,1,66.907-17.915" fill="#00a611"/>
            <path id="Trazado_1257" data-name="Trazado 1257" d="M1488.547,278.738a48.974,48.974,0,1,1-17.934,66.9,48.973,48.973,0,0,1,17.934-66.9" fill="#00a611"/>
            <path id="Trazado_1258" data-name="Trazado 1258" d="M1684.807,165.428a48.966,48.966,0,1,1-17.916,66.884,48.967,48.967,0,0,1,17.916-66.884" fill="#00a611"/>
          </g>
          <g id="Grupo_1530" data-name="Grupo 1530" transform="translate(-22055.867 -3478.612)">
            <path id="Trazado_1259" data-name="Trazado 1259" d="M451.511,115.567a48.957,48.957,0,1,1-48.947-48.955,48.953,48.953,0,0,1,48.947,48.955" transform="translate(-245 75)" fill="#00a611"/>
            <path id="Trazado_1260" data-name="Trazado 1260" d="M451.511,228.882a48.957,48.957,0,1,1-48.947-48.955,48.946,48.946,0,0,1,48.947,48.955" transform="translate(-245 75)" fill="#00a611"/>
            <path id="Trazado_1261" data-name="Trazado 1261" d="M451.511,342.2a48.957,48.957,0,1,1-48.947-48.952A48.96,48.96,0,0,1,451.511,342.2" transform="translate(-245 75)" fill="#00a611"/>
            <path id="Trazado_1262" data-name="Trazado 1262" d="M328.987,129.936a48.972,48.972,0,1,1-66.9,17.939,49.016,49.016,0,0,1,66.9-17.939" transform="translate(-245 75)" fill="#00a611"/>
            <path id="Trazado_1263" data-name="Trazado 1263" d="M525.252,243.258a48.97,48.97,0,1,1-66.907,17.916,48.988,48.988,0,0,1,66.907-17.916" transform="translate(-245 75)" fill="#00a611"/>
            <path id="Trazado_1264" data-name="Trazado 1264" d="M280.136,243.258a48.974,48.974,0,1,1-17.934,66.9,48.975,48.975,0,0,1,17.934-66.9" transform="translate(-245 75)" fill="#00a611"/>
            <path id="Trazado_1265" data-name="Trazado 1265" d="M476.4,129.949a48.966,48.966,0,1,1-17.916,66.883A48.966,48.966,0,0,1,476.4,129.949" transform="translate(-245 75)" fill="#00a611"/>
          </g>
        </g>
      </g>
      <g id="Grupo_1537" data-name="Grupo 1537" transform="translate(364 -1108.319)">
        <g id="Grupo_1533" data-name="Grupo 1533" transform="translate(-22279 -3565.892)">
          <path id="Trazado_1266" data-name="Trazado 1266" d="M1156,277.847a48.958,48.958,0,1,1-48.947-48.955A48.953,48.953,0,0,1,1156,277.847" fill="#00a611"/>
          <path id="Trazado_1267" data-name="Trazado 1267" d="M1156,391.162a48.958,48.958,0,1,1-48.947-48.955A48.946,48.946,0,0,1,1156,391.162" fill="#00a611"/>
          <path id="Trazado_1268" data-name="Trazado 1268" d="M1156,504.477a48.958,48.958,0,1,1-48.947-48.952A48.96,48.96,0,0,1,1156,504.477" fill="#00a611"/>
          <path id="Trazado_1269" data-name="Trazado 1269" d="M1033.475,292.216a48.972,48.972,0,1,1-66.9,17.939,49.016,49.016,0,0,1,66.9-17.939" fill="#00a611"/>
          <path id="Trazado_1270" data-name="Trazado 1270" d="M1229.74,405.538a48.97,48.97,0,1,1-66.907,17.916,48.989,48.989,0,0,1,66.907-17.916" fill="#00a611"/>
          <path id="Trazado_1271" data-name="Trazado 1271" d="M984.624,405.538a48.974,48.974,0,1,1-17.933,66.9,48.975,48.975,0,0,1,17.933-66.9" fill="#00a611"/>
          <path id="Trazado_1272" data-name="Trazado 1272" d="M1180.884,292.229a48.966,48.966,0,1,1-17.916,66.883,48.966,48.966,0,0,1,17.916-66.883" fill="#00a611"/>
        </g>
        <g id="Grupo_1536" data-name="Grupo 1536" transform="translate(0.355)">
          <g id="Grupo_1534" data-name="Grupo 1534" transform="translate(-22055.867 -3439.092)">
            <path id="Trazado_1273" data-name="Trazado 1273" d="M1659.922,151.047a48.958,48.958,0,1,1-48.947-48.955,48.952,48.952,0,0,1,48.947,48.955" fill="#00a611"/>
            <path id="Trazado_1274" data-name="Trazado 1274" d="M1659.922,264.361a48.958,48.958,0,1,1-48.947-48.954,48.946,48.946,0,0,1,48.947,48.954" fill="#00a611"/>
            <path id="Trazado_1275" data-name="Trazado 1275" d="M1659.922,377.676a48.958,48.958,0,1,1-48.947-48.952,48.96,48.96,0,0,1,48.947,48.952" fill="#00a611"/>
            <path id="Trazado_1276" data-name="Trazado 1276" d="M1537.4,165.415a48.972,48.972,0,1,1-66.9,17.939,49.019,49.019,0,0,1,66.9-17.939" fill="#00a611"/>
            <path id="Trazado_1277" data-name="Trazado 1277" d="M1733.663,278.738a48.97,48.97,0,1,1-66.907,17.915,48.988,48.988,0,0,1,66.907-17.915" fill="#00a611"/>
            <path id="Trazado_1278" data-name="Trazado 1278" d="M1488.547,278.738a48.974,48.974,0,1,1-17.934,66.9,48.973,48.973,0,0,1,17.934-66.9" fill="#00a611"/>
            <path id="Trazado_1279" data-name="Trazado 1279" d="M1684.807,165.428a48.966,48.966,0,1,1-17.916,66.884,48.967,48.967,0,0,1,17.916-66.884" fill="#00a611"/>
          </g>
          <g id="Grupo_1535" data-name="Grupo 1535" transform="translate(-22055.867 -3478.612)">
            <path id="Trazado_1280" data-name="Trazado 1280" d="M451.511,115.567a48.957,48.957,0,1,1-48.947-48.955,48.953,48.953,0,0,1,48.947,48.955" transform="translate(-245 75)" fill="#00a611"/>
            <path id="Trazado_1281" data-name="Trazado 1281" d="M451.511,228.882a48.957,48.957,0,1,1-48.947-48.955,48.946,48.946,0,0,1,48.947,48.955" transform="translate(-245 75)" fill="#00a611"/>
            <path id="Trazado_1282" data-name="Trazado 1282" d="M451.511,342.2a48.957,48.957,0,1,1-48.947-48.952A48.96,48.96,0,0,1,451.511,342.2" transform="translate(-245 75)" fill="#00a611"/>
            <path id="Trazado_1283" data-name="Trazado 1283" d="M328.987,129.936a48.972,48.972,0,1,1-66.9,17.939,49.016,49.016,0,0,1,66.9-17.939" transform="translate(-245 75)" fill="#00a611"/>
            <path id="Trazado_1284" data-name="Trazado 1284" d="M525.252,243.258a48.97,48.97,0,1,1-66.907,17.916,48.988,48.988,0,0,1,66.907-17.916" transform="translate(-245 75)" fill="#00a611"/>
            <path id="Trazado_1285" data-name="Trazado 1285" d="M280.136,243.258a48.974,48.974,0,1,1-17.934,66.9,48.975,48.975,0,0,1,17.934-66.9" transform="translate(-245 75)" fill="#00a611"/>
            <path id="Trazado_1286" data-name="Trazado 1286" d="M476.4,129.949a48.966,48.966,0,1,1-17.916,66.883A48.966,48.966,0,0,1,476.4,129.949" transform="translate(-245 75)" fill="#00a611"/>
          </g>
        </g>
      </g>
      <g id="Grupo_1542" data-name="Grupo 1542" transform="translate(364 -165.681)">
        <g id="Grupo_1538" data-name="Grupo 1538" transform="translate(-22279 -3565.892)">
          <path id="Trazado_1287" data-name="Trazado 1287" d="M1156,277.847a48.958,48.958,0,1,1-48.947-48.955A48.953,48.953,0,0,1,1156,277.847" fill="#00a611"/>
          <path id="Trazado_1288" data-name="Trazado 1288" d="M1156,391.162a48.958,48.958,0,1,1-48.947-48.955A48.946,48.946,0,0,1,1156,391.162" fill="#00a611"/>
          <path id="Trazado_1289" data-name="Trazado 1289" d="M1156,504.477a48.958,48.958,0,1,1-48.947-48.952A48.96,48.96,0,0,1,1156,504.477" fill="#00a611"/>
          <path id="Trazado_1290" data-name="Trazado 1290" d="M1033.475,292.216a48.972,48.972,0,1,1-66.9,17.939,49.016,49.016,0,0,1,66.9-17.939" fill="#00a611"/>
          <path id="Trazado_1291" data-name="Trazado 1291" d="M1229.74,405.538a48.97,48.97,0,1,1-66.907,17.916,48.989,48.989,0,0,1,66.907-17.916" fill="#00a611"/>
          <path id="Trazado_1292" data-name="Trazado 1292" d="M984.624,405.538a48.974,48.974,0,1,1-17.933,66.9,48.975,48.975,0,0,1,17.933-66.9" fill="#00a611"/>
          <path id="Trazado_1293" data-name="Trazado 1293" d="M1180.884,292.229a48.966,48.966,0,1,1-17.916,66.883,48.966,48.966,0,0,1,17.916-66.883" fill="#00a611"/>
        </g>
        <g id="Grupo_1541" data-name="Grupo 1541" transform="translate(0.355)">
          <g id="Grupo_1539" data-name="Grupo 1539" transform="translate(-22055.867 -3439.092)">
            <path id="Trazado_1294" data-name="Trazado 1294" d="M1659.922,151.047a48.958,48.958,0,1,1-48.947-48.955,48.952,48.952,0,0,1,48.947,48.955" fill="#00a611"/>
            <path id="Trazado_1295" data-name="Trazado 1295" d="M1659.922,264.361a48.958,48.958,0,1,1-48.947-48.954,48.946,48.946,0,0,1,48.947,48.954" fill="#00a611"/>
            <path id="Trazado_1296" data-name="Trazado 1296" d="M1659.922,377.676a48.958,48.958,0,1,1-48.947-48.952,48.96,48.96,0,0,1,48.947,48.952" fill="#00a611"/>
            <path id="Trazado_1297" data-name="Trazado 1297" d="M1537.4,165.415a48.972,48.972,0,1,1-66.9,17.939,49.019,49.019,0,0,1,66.9-17.939" fill="#00a611"/>
            <path id="Trazado_1298" data-name="Trazado 1298" d="M1733.663,278.738a48.97,48.97,0,1,1-66.907,17.915,48.988,48.988,0,0,1,66.907-17.915" fill="#00a611"/>
            <path id="Trazado_1299" data-name="Trazado 1299" d="M1488.547,278.738a48.974,48.974,0,1,1-17.934,66.9,48.973,48.973,0,0,1,17.934-66.9" fill="#00a611"/>
            <path id="Trazado_1300" data-name="Trazado 1300" d="M1684.807,165.428a48.966,48.966,0,1,1-17.916,66.884,48.967,48.967,0,0,1,17.916-66.884" fill="#00a611"/>
          </g>
          <g id="Grupo_1540" data-name="Grupo 1540" transform="translate(-22055.867 -3478.612)">
            <path id="Trazado_1301" data-name="Trazado 1301" d="M451.511,115.567a48.957,48.957,0,1,1-48.947-48.955,48.953,48.953,0,0,1,48.947,48.955" transform="translate(-245 75)" fill="#00a611"/>
            <path id="Trazado_1302" data-name="Trazado 1302" d="M451.511,228.882a48.957,48.957,0,1,1-48.947-48.955,48.946,48.946,0,0,1,48.947,48.955" transform="translate(-245 75)" fill="#00a611"/>
            <path id="Trazado_1303" data-name="Trazado 1303" d="M451.511,342.2a48.957,48.957,0,1,1-48.947-48.952A48.96,48.96,0,0,1,451.511,342.2" transform="translate(-245 75)" fill="#00a611"/>
            <path id="Trazado_1304" data-name="Trazado 1304" d="M328.987,129.936a48.972,48.972,0,1,1-66.9,17.939,49.016,49.016,0,0,1,66.9-17.939" transform="translate(-245 75)" fill="#00a611"/>
            <path id="Trazado_1305" data-name="Trazado 1305" d="M525.252,243.258a48.97,48.97,0,1,1-66.907,17.916,48.988,48.988,0,0,1,66.907-17.916" transform="translate(-245 75)" fill="#00a611"/>
            <path id="Trazado_1306" data-name="Trazado 1306" d="M280.136,243.258a48.974,48.974,0,1,1-17.934,66.9,48.975,48.975,0,0,1,17.934-66.9" transform="translate(-245 75)" fill="#00a611"/>
            <path id="Trazado_1307" data-name="Trazado 1307" d="M476.4,129.949a48.966,48.966,0,1,1-17.916,66.883A48.966,48.966,0,0,1,476.4,129.949" transform="translate(-245 75)" fill="#00a611"/>
          </g>
        </g>
      </g>
      <g id="Grupo_1547" data-name="Grupo 1547" transform="translate(0 305.638)">
        <g id="Grupo_1543" data-name="Grupo 1543" transform="translate(-22279 -3565.892)">
          <path id="Trazado_1308" data-name="Trazado 1308" d="M1156,277.847a48.958,48.958,0,1,1-48.947-48.955A48.953,48.953,0,0,1,1156,277.847" fill="#00a611"/>
          <path id="Trazado_1309" data-name="Trazado 1309" d="M1156,391.162a48.958,48.958,0,1,1-48.947-48.955A48.946,48.946,0,0,1,1156,391.162" fill="#00a611"/>
          <path id="Trazado_1310" data-name="Trazado 1310" d="M1156,504.477a48.958,48.958,0,1,1-48.947-48.952A48.96,48.96,0,0,1,1156,504.477" fill="#00a611"/>
          <path id="Trazado_1311" data-name="Trazado 1311" d="M1033.475,292.216a48.972,48.972,0,1,1-66.9,17.939,49.016,49.016,0,0,1,66.9-17.939" fill="#00a611"/>
          <path id="Trazado_1312" data-name="Trazado 1312" d="M1229.74,405.538a48.97,48.97,0,1,1-66.907,17.916,48.989,48.989,0,0,1,66.907-17.916" fill="#00a611"/>
          <path id="Trazado_1313" data-name="Trazado 1313" d="M984.624,405.538a48.974,48.974,0,1,1-17.933,66.9,48.975,48.975,0,0,1,17.933-66.9" fill="#00a611"/>
          <path id="Trazado_1314" data-name="Trazado 1314" d="M1180.884,292.229a48.966,48.966,0,1,1-17.916,66.883,48.966,48.966,0,0,1,17.916-66.883" fill="#00a611"/>
        </g>
        <g id="Grupo_1546" data-name="Grupo 1546" transform="translate(0.355)">
          <g id="Grupo_1544" data-name="Grupo 1544" transform="translate(-22055.867 -3439.092)">
            <path id="Trazado_1315" data-name="Trazado 1315" d="M1659.922,151.047a48.958,48.958,0,1,1-48.947-48.955,48.952,48.952,0,0,1,48.947,48.955" fill="#00a611"/>
            <path id="Trazado_1316" data-name="Trazado 1316" d="M1659.922,264.361a48.958,48.958,0,1,1-48.947-48.954,48.946,48.946,0,0,1,48.947,48.954" fill="#00a611"/>
            <path id="Trazado_1317" data-name="Trazado 1317" d="M1659.922,377.676a48.958,48.958,0,1,1-48.947-48.952,48.96,48.96,0,0,1,48.947,48.952" fill="#00a611"/>
            <path id="Trazado_1318" data-name="Trazado 1318" d="M1537.4,165.415a48.972,48.972,0,1,1-66.9,17.939,49.019,49.019,0,0,1,66.9-17.939" fill="#00a611"/>
            <path id="Trazado_1319" data-name="Trazado 1319" d="M1733.663,278.738a48.97,48.97,0,1,1-66.907,17.915,48.988,48.988,0,0,1,66.907-17.915" fill="#00a611"/>
            <path id="Trazado_1320" data-name="Trazado 1320" d="M1488.547,278.738a48.974,48.974,0,1,1-17.934,66.9,48.973,48.973,0,0,1,17.934-66.9" fill="#00a611"/>
            <path id="Trazado_1321" data-name="Trazado 1321" d="M1684.807,165.428a48.966,48.966,0,1,1-17.916,66.884,48.967,48.967,0,0,1,17.916-66.884" fill="#00a611"/>
          </g>
          <g id="Grupo_1545" data-name="Grupo 1545" transform="translate(-22055.867 -3478.612)">
            <path id="Trazado_1322" data-name="Trazado 1322" d="M451.511,115.567a48.957,48.957,0,1,1-48.947-48.955,48.953,48.953,0,0,1,48.947,48.955" transform="translate(-245 75)" fill="#00a611"/>
            <path id="Trazado_1323" data-name="Trazado 1323" d="M451.511,228.882a48.957,48.957,0,1,1-48.947-48.955,48.946,48.946,0,0,1,48.947,48.955" transform="translate(-245 75)" fill="#00a611"/>
            <path id="Trazado_1324" data-name="Trazado 1324" d="M451.511,342.2a48.957,48.957,0,1,1-48.947-48.952A48.96,48.96,0,0,1,451.511,342.2" transform="translate(-245 75)" fill="#00a611"/>
            <path id="Trazado_1325" data-name="Trazado 1325" d="M328.987,129.936a48.972,48.972,0,1,1-66.9,17.939,49.016,49.016,0,0,1,66.9-17.939" transform="translate(-245 75)" fill="#00a611"/>
            <path id="Trazado_1326" data-name="Trazado 1326" d="M525.252,243.258a48.97,48.97,0,1,1-66.907,17.916,48.988,48.988,0,0,1,66.907-17.916" transform="translate(-245 75)" fill="#00a611"/>
            <path id="Trazado_1327" data-name="Trazado 1327" d="M280.136,243.258a48.974,48.974,0,1,1-17.934,66.9,48.975,48.975,0,0,1,17.934-66.9" transform="translate(-245 75)" fill="#00a611"/>
            <path id="Trazado_1328" data-name="Trazado 1328" d="M476.4,129.949a48.966,48.966,0,1,1-17.916,66.883A48.966,48.966,0,0,1,476.4,129.949" transform="translate(-245 75)" fill="#00a611"/>
          </g>
        </g>
      </g>
    </g>
  </g>
</svg>
