<svg xmlns="http://www.w3.org/2000/svg" width="53.418" height="53.418" viewBox="0 0 53.418 53.418">
  <g id="vuesax_twotone_medal" data-name="vuesax/twotone/medal" transform="translate(-108 -316)">
    <g id="medal" transform="translate(108 316)">
      <path id="Vector" d="M30.048,14.467c0,7.99-6.726,14.467-15.024,14.467S0,22.458,0,14.467,6.726,0,15.024,0,30.048,6.477,30.048,14.467Z" transform="translate(11.685 4.452)" fill="none" stroke="#234e82" stroke-linecap="round" stroke-linejoin="round" stroke-width="1.5"/>
      <path id="Vector-2" data-name="Vector" d="M.022.4,0,16.827c0,2,1.4,2.983,3.138,2.159L9.1,16.159a2.3,2.3,0,0,1,1.8,0l5.987,2.827c1.714.8,3.138-.156,3.138-2.159V0" transform="translate(16.716 29.692)" fill="none" stroke="#234e82" stroke-linecap="round" stroke-linejoin="round" stroke-width="1.5" opacity="0.4"/>
      <path id="Vector-3" data-name="Vector" d="M0,0H53.418V53.418H0Z" fill="none" opacity="0"/>
    </g>
  </g>
</svg>
