<svg xmlns="http://www.w3.org/2000/svg" width="33.44" height="33.44" viewBox="0 0 33.44 33.44">
  <g id="vuesax_twotone_chart-success" data-name="vuesax/twotone/chart-success" transform="translate(-108 -188)">
    <g id="chart-success" transform="translate(108 188)">
      <path id="Vector" d="M27.867,15.327V9.753C27.867,2.787,25.08,0,18.114,0H9.753C2.787,0,0,2.787,0,9.753v8.36c0,6.967,2.787,9.753,9.753,9.753h5.573" transform="translate(2.787 2.787)" fill="none" stroke="#0b5694" stroke-linecap="round" stroke-linejoin="round" stroke-width="1.5"/>
      <path id="Vector-2" data-name="Vector" d="M27.867,15.327V9.753C27.867,2.787,25.08,0,18.114,0H9.753C2.787,0,0,2.787,0,9.753v8.36c0,6.967,2.787,9.753,9.753,9.753h5.573" transform="translate(2.787 2.787)" fill="none" stroke="#0b5694" stroke-linecap="round" stroke-linejoin="round" stroke-width="1.5"/>
      <path id="Vector-3" data-name="Vector" d="M27.867,15.327V9.753C27.867,2.787,25.08,0,18.114,0H9.753C2.787,0,0,2.787,0,9.753v8.36c0,6.967,2.787,9.753,9.753,9.753h5.573" transform="translate(2.787 2.787)" fill="none" stroke="#0b5694" stroke-linecap="round" stroke-linejoin="round" stroke-width="1.5"/>
      <path id="Vector-4" data-name="Vector" d="M0,3.386,2.2,5.573,6.967,0" transform="translate(22.294 23.687)" fill="none" stroke="#0b5694" stroke-linecap="round" stroke-linejoin="round" stroke-width="1.5" opacity="0.4"/>
      <path id="Vector-5" data-name="Vector" d="M0,0V4.18" transform="translate(9.753 14.63)" fill="none" stroke="#0b5694" stroke-linecap="round" stroke-linejoin="round" stroke-width="1.5" opacity="0.4"/>
      <path id="Vector-6" data-name="Vector" d="M0,0V4.18" transform="translate(16.72 14.63)" fill="none" stroke="#0b5694" stroke-linecap="round" stroke-linejoin="round" stroke-width="1.5" opacity="0.4"/>
      <path id="Vector-7" data-name="Vector" d="M0,0V4.18" transform="translate(23.687 14.63)" fill="none" stroke="#0b5694" stroke-linecap="round" stroke-linejoin="round" stroke-width="1.5" opacity="0.4"/>
      <path id="Vector-8" data-name="Vector" d="M0,0H33.44V33.44H0Z" fill="none" opacity="0"/>
    </g>
  </g>
</svg>
