<svg xmlns="http://www.w3.org/2000/svg" width="51.209" height="51.209" viewBox="0 0 51.209 51.209">
  <g id="vuesax_twotone_cpu-setting" data-name="vuesax/twotone/cpu-setting" transform="translate(-236 -190)">
    <g id="cpu-setting" transform="translate(236 190)">
      <path id="Vector" d="M34.139,11.949C34.139,3.414,30.726,0,22.191,0H11.949C3.414,0,0,3.414,0,11.949V22.191c0,8.535,3.414,11.949,11.949,11.949" transform="translate(8.535 8.535)" fill="none" stroke="#26558f" stroke-linecap="round" stroke-linejoin="round" stroke-width="1.5"/>
      <path id="Vector-2" data-name="Vector" d="M19.95,2.134C18.777.64,16.814,0,13.869,0h-6.4C2.134,0,0,2.134,0,7.468v6.4c0,2.945.64,4.908,2.112,6.081" transform="translate(14.936 14.936)" fill="none" stroke="#26558f" stroke-linecap="round" stroke-linejoin="round" stroke-width="1.5"/>
      <path id="Vector-3" data-name="Vector" d="M0,4.267V0" transform="translate(17.091 4.267)" fill="none" stroke="#26558f" stroke-linecap="round" stroke-linejoin="round" stroke-width="1.5" opacity="0.4"/>
      <path id="Vector-4" data-name="Vector" d="M0,4.267V0" transform="translate(25.605 4.267)" fill="none" stroke="#26558f" stroke-linecap="round" stroke-linejoin="round" stroke-width="1.5" opacity="0.4"/>
      <path id="Vector-5" data-name="Vector" d="M0,4.267V0" transform="translate(34.139 4.267)" fill="none" stroke="#26558f" stroke-linecap="round" stroke-linejoin="round" stroke-width="1.5" opacity="0.4"/>
      <path id="Vector-6" data-name="Vector" d="M0,0H4.267" transform="translate(42.674 17.07)" fill="none" stroke="#26558f" stroke-linecap="round" stroke-linejoin="round" stroke-width="1.5" opacity="0.4"/>
      <path id="Vector-7" data-name="Vector" d="M0,0V4.267" transform="translate(17.091 42.674)" fill="none" stroke="#26558f" stroke-linecap="round" stroke-linejoin="round" stroke-width="1.5" opacity="0.4"/>
      <path id="Vector-8" data-name="Vector" d="M0,0H4.267" transform="translate(4.267 17.07)" fill="none" stroke="#26558f" stroke-linecap="round" stroke-linejoin="round" stroke-width="1.5" opacity="0.4"/>
      <path id="Vector-9" data-name="Vector" d="M0,0H4.267" transform="translate(4.267 25.605)" fill="none" stroke="#26558f" stroke-linecap="round" stroke-linejoin="round" stroke-width="1.5" opacity="0.4"/>
      <path id="Vector-10" data-name="Vector" d="M0,0H4.267" transform="translate(4.267 34.139)" fill="none" stroke="#26558f" stroke-linecap="round" stroke-linejoin="round" stroke-width="1.5" opacity="0.4"/>
      <path id="Vector-11" data-name="Vector" d="M6.785,3.393A3.393,3.393,0,1,1,3.393,0,3.393,3.393,0,0,1,6.785,3.393Z" transform="translate(32.262 32.881)" fill="none" stroke="#26558f" stroke-linecap="round" stroke-linejoin="round" stroke-width="1.5" opacity="0.4"/>
      <path id="Vector-12" data-name="Vector" d="M0,11.653V9.669A2.14,2.14,0,0,1,2.134,7.535c2.048,0,2.881-1.451,1.856-3.222A2.132,2.132,0,0,1,4.78,1.39L6.721.259A1.888,1.888,0,0,1,9.3.942l.128.213c1.024,1.771,2.688,1.771,3.713,0l.128-.213A1.907,1.907,0,0,1,15.854.259L17.8,1.39a2.137,2.137,0,0,1,.789,2.923c-1.024,1.771-.192,3.222,1.856,3.222a2.14,2.14,0,0,1,2.134,2.134v1.984a2.14,2.14,0,0,1-2.134,2.134c-2.048,0-2.881,1.451-1.856,3.222a2.132,2.132,0,0,1-.789,2.923l-1.942,1.131a1.888,1.888,0,0,1-2.582-.683l-.128-.213c-1.024-1.771-2.688-1.771-3.713,0L9.3,20.38a1.907,1.907,0,0,1-2.582.683L4.78,19.932a2.137,2.137,0,0,1-.789-2.923c1.024-1.771.192-3.222-1.856-3.222A2.113,2.113,0,0,1,0,11.653Z" transform="translate(24.346 25.601)" fill="none" stroke="#26558f" stroke-linecap="round" stroke-linejoin="round" stroke-width="1.5"/>
      <path id="Vector-13" data-name="Vector" d="M0,0H51.209V51.209H0Z" fill="none" opacity="0"/>
    </g>
  </g>
</svg>
