<svg xmlns="http://www.w3.org/2000/svg" width="50.791" height="50.791" viewBox="0 0 50.791 50.791">
  <g id="vuesax_twotone_lovely" data-name="vuesax/twotone/lovely" transform="translate(-748 -252)">
    <g id="lovely" transform="translate(748 252)">
      <path id="Vector" d="M37.8,10.56a20.351,20.351,0,0,1-.169,2.582,7.86,7.86,0,0,0-9.439,2.5A7.862,7.862,0,0,0,14.031,20.4c0,5.672,3.005,10.01,6.349,12.952a1.987,1.987,0,0,1-.317.127,3.967,3.967,0,0,1-2.328,0C12.253,31.6,0,23.808,0,10.56A10.493,10.493,0,0,1,18.9,4.211,10.493,10.493,0,0,1,37.8,10.56Z" transform="translate(4.233 6.561)" fill="none" stroke="#26558f" stroke-linecap="round" stroke-linejoin="round" stroke-width="1.5" opacity="0.4"/>
      <g id="Group" transform="translate(18.264 19.047)">
        <path id="Vector-2" data-name="Vector" d="M28.295,7.915c0,9.9-9.164,15.745-13.269,17.142a3.1,3.1,0,0,1-1.757,0,21.946,21.946,0,0,1-6.92-4.19C3.005,17.925,0,13.587,0,7.915A7.862,7.862,0,0,1,14.158,3.153,7.86,7.86,0,0,1,23.6.656,7.9,7.9,0,0,1,28.295,7.915Z" fill="none" stroke="#26558f" stroke-linecap="round" stroke-linejoin="round" stroke-width="1.5"/>
      </g>
      <path id="Vector-3" data-name="Vector" d="M0,0H50.791V50.791H0Z" fill="none" opacity="0"/>
    </g>
  </g>
</svg>
