<svg xmlns="http://www.w3.org/2000/svg" width="33.487" height="33.487" viewBox="0 0 33.487 33.487">
  <g id="vuesax_twotone_box-remove" data-name="vuesax/twotone/box-remove" transform="translate(-364 -188)">
    <g id="box-remove" transform="translate(364 188)">
      <g id="Group_142" data-name="Group 142" transform="translate(3.335 2.791)" opacity="0.4">
        <path id="Vector" d="M0,0,12.321,7.13,24.557.042" transform="translate(1.088 7.59)" fill="none" stroke="#0b5694" stroke-linecap="round" stroke-linejoin="round" stroke-width="1.5"/>
        <path id="Vector-2" data-name="Vector" d="M0,12.655V0" transform="translate(13.409 14.706)" fill="none" stroke="#0b5694" stroke-linecap="round" stroke-linejoin="round" stroke-width="1.5"/>
        <path id="Vector-3" data-name="Vector" d="M26.818,10v7.9a.92.92,0,0,1-.014.2,5.471,5.471,0,0,0-3.628-1.353,5.588,5.588,0,0,0-5.581,5.581A5.471,5.471,0,0,0,18.4,25.2a3.944,3.944,0,0,0,.447.628L16.3,27.236a6.563,6.563,0,0,1-5.777,0L3.07,23.106A6.584,6.584,0,0,1,0,17.9V10A6.584,6.584,0,0,1,3.07,4.8L10.521.67A6.563,6.563,0,0,1,16.3.67L23.748,4.8A6.584,6.584,0,0,1,26.818,10Z" fill="none" stroke="#0b5694" stroke-linecap="round" stroke-linejoin="round" stroke-width="1.5"/>
      </g>
      <g id="Group" transform="translate(20.93 19.534)">
        <path id="Vector-4" data-name="Vector" d="M11.162,5.581a5.471,5.471,0,0,1-.809,2.874,5.014,5.014,0,0,1-1.1,1.312,5.449,5.449,0,0,1-3.67,1.4A5.539,5.539,0,0,1,.809,8.456,5.471,5.471,0,0,1,0,5.581a5.581,5.581,0,0,1,11.162,0Z" fill="none" stroke="#0b5694" stroke-linecap="round" stroke-linejoin="round" stroke-width="1.5"/>
        <g id="Group-2" data-name="Group" transform="translate(5.581 3.47) rotate(45)">
          <path id="Vector-5" data-name="Vector" d="M2.958,2.944,0,0" transform="translate(0.028)" fill="none" stroke="#0b5694" stroke-linecap="round" stroke-linejoin="round" stroke-width="1.5"/>
          <path id="Vector-6" data-name="Vector" d="M2.958,0,0,2.944" transform="translate(0 0.042)" fill="none" stroke="#0b5694" stroke-linecap="round" stroke-linejoin="round" stroke-width="1.5"/>
        </g>
      </g>
      <path id="Vector-7" data-name="Vector" d="M0,0H33.487V33.487H0Z" fill="none" opacity="0"/>
    </g>
  </g>
</svg>
