<svg xmlns="http://www.w3.org/2000/svg" width="58.063" height="58.063" viewBox="0 0 58.063 58.063">
  <g id="vuesax_twotone_house-2" data-name="vuesax/twotone/house-2" transform="translate(-298.265 -186.265)">
    <g id="house-2" transform="translate(298.265 186.265)">
      <path id="Vector" d="M0,0H48.386" transform="translate(4.839 53.225)" fill="none" stroke="#639c58" stroke-linecap="round" stroke-linejoin="round" stroke-width="1.5"/>
      <path id="Vector-2" data-name="Vector" d="M0,47.1.121,18a4.874,4.874,0,0,1,1.863-3.8L18.919,1.016a4.865,4.865,0,0,1,5.952,0L41.806,14.177A4.813,4.813,0,0,1,43.669,18V47.1" transform="translate(7.137 6.121)" fill="none" stroke="#639c58" stroke-linejoin="round" stroke-width="1.5"/>
      <path id="Vector-3" data-name="Vector" d="M20.564,0H3.629A3.624,3.624,0,0,0,0,3.629V26.612H24.193V3.629A3.624,3.624,0,0,0,20.564,0Z" transform="translate(16.935 26.612)" fill="none" stroke="#639c58" stroke-linecap="round" stroke-linejoin="round" stroke-width="1.5" opacity="0.4"/>
      <path id="Vector-4" data-name="Vector" d="M0,0V3.629" transform="translate(24.193 39.314)" fill="none" stroke="#639c58" stroke-linecap="round" stroke-linejoin="round" stroke-width="1.5"/>
      <path id="Vector-5" data-name="Vector" d="M0,0H7.258" transform="translate(25.403 18.145)" fill="none" stroke="#639c58" stroke-linecap="round" stroke-linejoin="round" stroke-width="1.5" opacity="0.4"/>
      <path id="Vector-6" data-name="Vector" d="M0,0H58.063V58.063H0Z" fill="none" opacity="0"/>
    </g>
  </g>
</svg>
